<svg xmlns="http://www.w3.org/2000/svg" id="Layer_1" data-name="Layer 1" viewBox="0 0 908.25 1005.77"><defs><style>.cls-3{fill:none;stroke:#000;stroke-miterlimit:10;stroke-width:6px}</style></defs><path d="m475.06 814.08 28.92 175.21 50.08 5.03" class="cls-3"/><path d="M896.52 343.06c-1.96 2.41-4.06 4.67-6.33 6.72a149.4 149.4 0 0 1 6.33-6.72Z" style="fill:#0c0c0c"/><path d="M633.96 509.75c27.11 154.92-78.04 302.75-234.9 330.2C242.22 867.39 93.1 764.06 65.99 609.14c-12.81-73.22 3.93-144.86 41.71-202.95.22-.37.46-.74.72-1.11.96-1.34 1.89-2.72 2.81-4.15 35.74-55.39 33.66-155.83 33.66-155.83-13.16-96.09 55.53-186.8 156.22-204.42C404.06 22.66 501.49 87.9 518.72 186.37c.51 2.91.95 5.83 1.29 8.73.11.75.19 1.51.25 2.25.09 8.02.45 15.84 1 23.41 7.17 95.47 48.54 153.05 50.79 156.13l.09.12c31 36.87 52.94 82.04 61.82 132.75Z" style="fill:#e1fca4"/><path d="M668.52 503.35c28.86 164.89-90.36 323.51-266.3 354.3C226.3 888.43 60.28 779.73 31.43 614.83c-13.64-77.93 5.81-154.47 48.69-216.76.25-.39.52-.79.82-1.19 1.09-1.44 2.14-2.92 3.19-4.45 40.57-59.4 39.22-166.45 39.22-166.45-13.81-102.31 64-199.68 176.95-219.45 115.48-20.21 223.96 48.39 242.3 153.19.54 3.1 1.01 6.21 1.36 9.29.11.8.2 1.61.26 2.4.02 8.55.35 16.88.89 24.94 7.1 101.71 52.87 162.69 55.36 165.95l.1.13c34.36 39 58.5 86.95 67.94 140.91Z" class="cls-3"/><path d="M474.7 402.71c-11.44 1.72-22.89 6.48-33.96 15.17-41.07 32.23-71.38 81.46-76.84 131.81-4.46 41.09 12.18 85.73 47.82 111.34 41.92 30.12 102.07 23.31 144.72-2.07 42.24-25.12 61.05-70.13 56.24-116.31-3.6-34.63-18.74-68.17-42.79-94.57-24.57-26.97-59.89-50.68-95.19-45.38Z" style="fill:#1b1d21"/><path d="M380.42 173.63c-11.41-11.72-22.97-23.54-31.71-37.46s-14.07-28.89-13.15-44.82c.76-13.27 6.95-26.07 17.33-34.15 5.06-3.94 10.93-6.6 17.34-7.29 7.18-.78 14.29.61 20.92 3.41s13.33 7.21 19.2 11.89 12 10.12 17.36 15.77c4.97 5.24 9.4 11.62 9.39 19.12 0 1.69-.22 3.23-.74 4.84-.25.77-.55 1.47-.95 2.18-.17.31-.35.61-.55.91-.11.17-.23.34-.34.5-.29.41.23-.28-.07.11-.39.5-.83.97-1.29 1.4-.25.23-.5.46-.76.67s0 .02.04-.02c-.19.15-.39.28-.59.42-.52.35-1.05.67-1.61.95-.16.08-.84.41-.69.34.13-.06-.54.21-.72.27-.65.23-1.3.42-1.97.57-.29.07-.58.13-.87.18-.2.04-.39.07-.59.1.33-.05.11 0-.09.01-1.42.15-2.84.18-4.26.07-1.23-.09-2.13-.23-3.65-.62-.71-.18-1.41-.39-2.11-.63-.76-.26-1.15-.41-1.62-.63-2.75-1.26-4.74-2.61-6.69-4.63-2.45-2.53-4.36-5.49-5.92-8.64-3.16-6.42-4.65-13.59-5.91-20.58-1.3-7.21-2.49-14.47-2.85-21.8-.34-7.17.12-14.33 2.64-21.1 2.33-6.25 6.72-11.59 12.29-15.23 13.36-8.74 29.89-8.24 45.06-5.6 4.33.76 8.64 1.66 12.94 2.57 1.58.34 3.24-.47 3.69-2.1.41-1.49-.5-3.35-2.1-3.69-17.36-3.67-36.01-7.45-53.21-1.03-7.19 2.68-13.89 6.91-18.65 13.01-5.03 6.44-7.54 14.14-8.41 22.19s-.05 16 1.08 23.89 2.34 15.49 4.55 22.95 5.68 14.95 11.47 20.31c4.83 4.47 11.29 7.01 17.83 7.37 6.14.33 12.78-1.64 16.89-6.42 5.45-6.34 5.78-15.43 2.74-22.95-3.21-7.95-9.43-14.01-15.59-19.75s-12.49-11.15-19.44-15.78c-13.17-8.78-29.66-14.43-45.22-8.73-13.79 5.06-24.07 17.13-28.68 30.88-5.45 16.27-2.3 34.2 4.48 49.55s18.68 29.65 30.64 42.28c2.92 3.08 5.88 6.12 8.84 9.16 2.7 2.77 6.94-1.47 4.24-4.24ZM379.64 266.72c-.23-6.23 2.75-12.53 7.75-16.31 5.36-4.05 11.96-4.61 18.12-2.34 3.05 1.12 6.23 3.34 8.21 5.93.98 1.29 2.58 1.97 4.1 1.08 1.27-.74 2.06-2.81 1.08-4.1-5.04-6.61-13.09-10.55-21.45-10.22s-16.08 5.17-20.33 12.46c-2.37 4.07-3.65 8.79-3.47 13.5.06 1.62 1.34 3 3 3 1.58 0 3.06-1.37 3-3ZM482.87 242.81c.69-3.09 2.16-5.6 4.5-7.76 1.12-1.03 2.33-1.83 3.79-2.54 1.04-.5 2.89-1.05 3.92-1.17 6.29-.78 12.41 2.87 15.09 8.64.68 1.47 2.8 1.84 4.1 1.08 1.51-.88 1.76-2.63 1.08-4.1-2.72-5.85-8.61-10.27-14.97-11.35s-13.33 1.1-18.01 5.96c-2.58 2.67-4.47 6.03-5.28 9.66-.35 1.58.48 3.25 2.1 3.69 1.5.41 3.34-.51 3.69-2.1ZM428.91 278.44c11.07 10.87 31.04 12.02 43.07 2.21 2.98-2.43 5.3-5.68 6.41-9.38s-4.68-5.29-5.79-1.6c-.68 2.28-2.1 4.27-4.08 6.06s-4.75 3.31-7.45 4.21c-6.34 2.11-13.21 1.7-19.46-.56-3.15-1.14-6.13-2.9-8.46-5.19-2.76-2.71-7 1.53-4.24 4.24ZM186.1 432.93c-2.58 22.03-13.87 41.72-24.79 60.58-5.64 9.74-11.34 19.46-16.18 29.63s-9 21.65-11.39 33.16c-4.84 23.36-3.85 47.94 3.01 70.8 6.36 21.2 17.86 40.62 33.17 56.58 14.69 15.31 32.74 27.33 52.58 34.88 2.47.94 4.96 1.8 7.48 2.59l-2.1-2.1c2.01 11.58 4.02 23.16 6.04 34.74l.86 4.93c.28 1.6 2.24 2.49 3.69 2.1 1.69-.46 2.37-2.09 2.1-3.69-2.01-11.58-4.02-23.16-6.04-34.74l-.86-4.93c-.18-1.03-1.16-1.8-2.1-2.1-19.65-6.21-37.73-17.04-52.67-31.22-15.34-14.56-27.34-32.58-34.38-52.55-7.72-21.92-9.82-45.85-5.93-68.77 1.91-11.23 5.2-22.21 9.84-32.61 4.51-10.11 9.99-19.75 15.53-29.33 10.9-18.85 22.53-38.09 26.85-59.73.54-2.72.95-5.47 1.27-8.22.19-1.61-1.51-3-3-3-1.78 0-2.81 1.38-3 3Z"/><path d="m226.13 805.63-40.44 197.14h51.98" class="cls-3"/><path d="M551.42 368.48c17.69-4.38 34.75-11.27 50.68-20.1s31.39-20.12 45.1-32.69 26.72-27.49 37.7-43.16c11.19-15.97 20.58-33.13 28.13-51.09 7.63-18.13 13.28-37.09 16.73-56.46.43-2.41.82-4.83 1.19-7.26l-2.1 2.1c11.8-3.51 23.6-7.03 35.4-10.54l5.03-1.5c3.69-1.1 2.12-6.89-1.6-5.79-11.8 3.51-23.6 7.03-35.4 10.54l-5.03 1.5c-.91.27-1.94 1.08-2.1 2.1-2.9 19.38-7.98 38.41-15.07 56.67-6.84 17.61-15.71 34.67-26.18 50.53-10.34 15.66-22.26 30.12-35.78 43.24s-27.34 23.8-43.05 33.17-31.64 16.39-48.98 21.3c-2.08.59-4.17 1.14-6.27 1.66-3.75.93-2.16 6.72 1.6 5.79Z"/></svg>