<svg xmlns="http://www.w3.org/2000/svg" id="Layer_1" data-name="Layer 1" viewBox="0 0 816.51 1024.16"><defs><style>.cls-2{fill:#1b1d21}.cls-3,.cls-4{stroke:#000;fill:none;stroke-miterlimit:10;stroke-width:6px}.cls-4{stroke:#1b1d21}</style></defs><path d="M738.3 361.57c-1.56 1.92-3.23 3.72-5.04 5.35 1.63-1.84 3.31-3.63 5.04-5.35Z" style="fill:#0c0c0c"/><path d="M646.13 460.37c0 125.28-102.8 226.83-229.64 226.83S186.85 585.65 186.85 460.37c0-59.21 22.97-113.12 60.59-153.51.22-.26.46-.52.72-.77.94-.92 1.86-1.88 2.78-2.87 35.65-38.55 47.8-117.64 47.8-117.64 2.87-77.2 69.21-138.94 150.64-138.94s150.73 64.56 150.73 144.19c0 2.35-.06 4.71-.18 7.03-.02.61-.06 1.21-.11 1.8a307.55 307.55 0 0 0-2.43 18.5c-7.49 75.89 17.07 126.75 18.41 129.47.04.07.06.11.06.11 19.26 33.18 30.28 71.64 30.28 112.64Z" style="fill:#e1fca4"/><path d="M413.42 335.63c-9.12 1.46-18.23 5.52-27.05 12.92-32.72 27.45-56.86 69.39-61.21 112.27-3.55 35 9.7 73.02 38.09 94.83 33.39 25.66 81.3 19.85 115.28-1.76 33.64-21.4 48.63-59.73 44.8-99.07-2.87-29.49-14.93-58.07-34.08-80.55-19.57-22.97-47.7-43.16-75.82-38.65Z" class="cls-2"/><path d="M656.56 374.45a244.48 244.48 0 0 0-19.37-41.51s-.02-.04-.06-.11c-.7-1.42-7.19-14.68-12.91-37.12-6.38-24.87-11.85-61.03-7.49-104.77.68-6.58 1.56-13.35 2.7-20.27.06-.64.09-1.31.11-1.97.15-2.56.2-5.13.2-7.71 0-87.26-74.7-158-166.86-158S289.31 70.64 286.13 155.25c0 0-11 70.8-42.25 115.6-3.31 4.76-6.88 9.25-10.67 13.32a132 132 0 0 1-3.07 3.15c-.29.28-.55.55-.81.85-8 8.52-15.4 17.57-22.15 27.11-28.33 40.08-44.92 88.69-44.92 141.1 0 22.26 3 43.85 8.61 64.38 62.76 20.89 139.2 37.93 222.45 48.03 91.82 11.15 177.62 12.14 247.45 4.73 19.09-34.89 29.93-74.77 29.93-117.13 0-28.69-4.98-56.27-14.14-81.92ZM472.42 58.86c5.89 1.49 11.37 4.49 15.65 8.79 3.75 3.75 6.7 8.81 6.18 14.09-.5 5.28-5.61 10.19-10.78 8.99-5.48-1.29-7.63-7.78-8.85-13.26-1.34-6.05-2.63-12.51-2.21-18.61Z" class="cls-4"/><path d="M640.77 573.51c-42.82 78.23-127.19 131.44-224.29 131.44-117.63 0-216.6-78.12-245.61-184.19 62.76 20.89 139.2 37.93 222.45 48.03 91.82 11.15 177.62 12.14 247.45 4.73Z" class="cls-4"/><path d="M519.12 33.05c-8.9-.93-18-1.8-26.81.34-7.25 1.77-14.1 5.73-18.45 11.89-2.82 3.99-4.08 8.76-4.45 13.58l3.8-2.89c-9.2-2.34-18.94-1.29-27.27 3.33-7.06 3.91-12.87 10.11-16.65 17.22-8.49 15.99-6.82 36.02 1.36 51.77 4.31 8.3 10.63 15.52 18.47 20.64 1.36.89 3.32.27 4.1-1.08.85-1.46.28-3.22-1.08-4.1-12.38-8.09-20.15-22.25-22.04-36.75-1.98-15.24 2.94-31.82 15.99-40.75 7.51-5.14 16.62-6.76 25.51-4.5 2 .51 3.65-.94 3.8-2.89.52-6.8 3.91-12.45 9.62-16.02s12.97-4.83 19.95-4.79c4.73.02 9.43.51 14.13 1 1.61.17 3-1.5 3-3 0-1.76-1.38-2.83-3-3Z"/><path d="M580.47 323.99c27.22-19.02 56.95-34.53 82.48-55.93 18.08-15.16 31.98-34.99 40.16-57.12 6.75-18.27 1.73-55.76 14.16-69.74 7.03-7.91 22.83-6.72 32.26-9.04M265.67 281.85c-73.81-31.24-113.44-103.41-108.12-182.26.22-3.28.43-6.67-.74-9.76-3.16-8.32-21.87-17.01-28.79-22.14" class="cls-3"/><path d="M207.19 315.28c-28.33 40.08-44.92 88.69-44.92 141.1 0 22.26 3 43.85 8.61 64.38C65.01 485.51-1.89 439.23 3.28 396.58c5.35-44.11 86.47-73.52 203.91-81.3ZM813.23 494.89c-4.86 40.06-72.18 68-172.46 78.61 19.09-34.89 29.93-74.77 29.93-117.13 0-28.69-4.98-56.27-14.14-81.92 99.53 34.75 161.68 79.28 156.67 120.44Z" class="cls-4"/><path d="M376.33 245.51c.1-.64.23-1.28.43-1.9s.17-.55.53-1.21c.64-1.18 1.06-1.69 2.02-2.59.77-.72 1.47-1.19 2.61-1.71-.35.16.49-.19.49-.18.31-.1.62-.2.93-.27.26-.06.53-.12.79-.17.21-.04.21-.04 0 0 .16-.02.32-.03.49-.03 4.35-.21 8.33 2.96 9.27 7.29.34 1.58 2.19 2.51 3.69 2.1 1.64-.45 2.44-2.1 2.1-3.69-1.46-6.72-8.13-12.03-15.06-11.7s-13.07 5.68-14.08 12.47c-.24 1.6.4 3.22 2.1 3.69 1.42.39 3.45-.48 3.69-2.1ZM457.78 243.1c.04-.95.44-1.99.94-2.64.84-1.09 1.58-1.6 2.77-2.22 2.16-1.13 4.57-1.24 7.05-.45 4.91 1.55 8.52 6.56 8.38 11.63-.11 3.86 5.89 3.86 6 0 .22-8.02-5.72-15.6-13.45-17.61s-17.36 2.59-17.69 11.29c-.14 3.86 5.86 3.86 6 0ZM405.31 262.41c10.37 10.08 27.79 10.48 38.76 1.17 1.24-1.05 1.08-3.16 0-4.24-1.22-1.22-3-1.05-4.24 0-8.41 7.13-22.35 6.54-30.28-1.17-2.77-2.69-7.02 1.55-4.24 4.24Z" class="cls-2"/><path d="M635.39 848.92c-5.12 13.73-11.26 26.82-18.35 39.16-61.69 107.7-193.34 160.31-316.22 119.02-136.96-46.02-212.15-191.65-171.14-328.12L635.4 848.92ZM483.32 670.36l13.82 128.05 37.57 12.68M274.08 624.18l-54.01 35.22 44.14 61.52-40.38-14.09" class="cls-4"/></svg>