<svg xmlns="http://www.w3.org/2000/svg" id="Layer_1" data-name="Layer 1" viewBox="0 0 516.93 575.38"><defs><style>.cls-2{fill:#231f20}.cls-5{stroke:#231f20;stroke-miterlimit:10;stroke-width:4px;fill:none}</style></defs><path d="M95.68 362.31c-18.74-60.21 6.52-117.54 14.16-133.1 14.52-29.59 24.56-28.89 40.63-63.34 24.43-52.37 9.01-70.67 29.88-102.78 20.07-30.88 61.21-55.29 105.17-52.58 46.7 2.87 84.69 35.61 100.6 69.75 20 42.93-7.67 60.68 12.49 122.88 12.09 37.32 26.14 43.54 31.51 79.85.6 4.03 5.61 40.41-7.17 77.68-21.14 61.66-91.07 126.02-178.9 118.55-70.84-6.02-129.65-56.76-148.37-116.91Z" style="stroke-width:4px;stroke:#231f20;stroke-miterlimit:10;fill:#fff"/><path d="M109.28 355c-17.19-55.23 5.99-107.82 12.99-122.09 13.32-27.15 22.53-26.5 37.27-58.1 22.41-48.04 8.27-64.83 27.41-94.28 18.41-28.33 56.15-50.72 96.47-48.24 42.84 2.63 77.69 32.67 92.28 63.99 18.35 39.38-7.03 55.66 11.46 112.72 11.09 34.24 23.98 39.94 28.91 73.24.55 3.69 5.14 37.07-6.58 71.26-19.39 56.56-83.54 115.6-164.11 108.75-64.98-5.53-118.93-52.07-136.1-107.25Z" style="fill:#e1eaa3"/><path d="M227.3 437.77s15.13-5.71 55.49-24.54c42.36-19.76 51.02-38.46 58.11-64.16 2.07-7.51 9.14-33.4-6.22-54.47-12.09-16.57-36.28-27.05-52.91-20.23-15.81 6.48-19.75 26.53-26.46 24.9-5.83-1.42-1.94-16.34-10.89-28.01-10.56-13.77-34.88-17.65-52.91-10.89-30.47 11.42-35.1 50.24-35.79 56.02-2.96 24.79 7.21 44.44 14.01 57.58 6.64 12.82 13.76 21 28.01 37.35 14.13 16.21 29.57 26.46 29.57 26.46Z" style="stroke:#231f20;stroke-miterlimit:10;fill:#231f20"/><path d="m1.1 212.73 28.27 18.63s20.85 70.03 59.76 37.35l34.24-23.64M376.15 263.01l32.68 25.63s80.92 44.4 66.92-25.63l40.46-15.56M217.89 189.18s6.22-21.79 18.67 0M267.83 189.18s6.22-21.79 18.67 0M232.19 202.04s20.6 26.04 35.14 0" class="cls-5"/><path d="M249.07 102.95c-14.77.86-32.29-5.57-38.63-19.97-1.6-3.64-2.34-7.72-2.04-11.71s1.79-7.87 3.83-11.3c4.38-7.38 11.26-13.14 18.51-17.58 3.34-2.04 6.83-3.94 10.43-5.17s7.25-2.01 10.65-1.07 5.95 4.2 5.92 8c-.03 4.36-2.83 8.44-5.84 11.37-6.1 5.92-15.07 7.98-23.34 7.38s-16.66-4.05-22.57-9.98c-11.5-11.56-12.1-31.14-2.9-44.23 1.13-1.61 2.44-3.07 3.86-4.44 2.32-2.24-1.22-5.77-3.54-3.54-13.41 12.93-15.62 35.72-4.9 50.99 11.13 15.86 35.47 21.47 52.12 11.08 8.19-5.11 16.39-17 9.7-26.38-5.88-8.24-16.9-5.87-24.77-2.27-8.48 3.88-16.58 9.58-22.72 16.61s-10.61 16.61-9.17 26.55c2.71 18.73 21.76 29.33 39.17 30.61 2.08.15 4.16.17 6.24.04 3.2-.19 3.22-5.19 0-5ZM174.43 447.93c.8 0 .81-1.25 0-1.25s-.81 1.25 0 1.25Z" class="cls-2"/><path d="M175.53 446.66c-10.51 3.65-17.35 13.28-19.6 23.92a41.425 41.425 0 0 0-.18 16.34c1.13 5.95 3.84 11.63 7.28 16.59 7.42 10.71 18.28 18.57 29.64 24.67 13.01 6.98 27 12.22 41.36 15.6 16.21 3.81 32.98 5.29 49.61 4.29l-2.16-3.76c-5.34 9.12-10.67 18.23-16.01 27.35-1.63 2.78 2.69 5.3 4.32 2.52 5.34-9.12 10.67-18.23 16.01-27.35.91-1.56-.23-3.88-2.16-3.76-28.21 1.7-56.8-3.8-82.27-16.07-19.77-9.52-43.12-25.94-41.25-50.67.78-10.39 6.48-21.28 16.74-24.84 1.27-.44 2.12-1.71 1.75-3.08-.34-1.24-1.79-2.19-3.08-1.75Z" class="cls-2"/><path d="m234.73 562.44-8.3-13.67-1.49 3.67c14.69-4.29 29.39-8.57 44.08-12.86 13.4-3.91 27.09-7.43 39.74-13.44 11.27-5.35 21.51-13.07 28.23-23.73 6.2-9.84 8.95-22.25 4.82-33.42-4.26-11.54-14.77-21.31-27.6-21.16-3.22.04-3.22 5.04 0 5 10.05-.11 18.36 7.29 22.24 16.13 4.27 9.73 2.26 20.68-2.97 29.62-13 22.19-39.98 28.66-62.91 35.35-15.65 4.57-31.31 9.13-46.96 13.7-1.52.44-2.35 2.27-1.49 3.67 2.77 4.56 5.53 9.11 8.3 13.67 1.67 2.75 5.99.24 4.32-2.52Z" class="cls-2"/></svg>