<svg xmlns="http://www.w3.org/2000/svg" id="Layer_1" data-name="Layer 1" viewBox="0 0 594.62 521.18"><defs><style>.cls-2{stroke:#070808;stroke-miterlimit:10;stroke-width:3px;fill:#b2d236}</style></defs><path d="M303.34 521.18h-19.65v-.41c6.56.14 13.11.09 19.67 0v.41ZM593.35 257.74l-.11.04-.12-.02c0-4.8 0-9.59-.01-14.39.08-.02.16-.03.24-.03v14.39ZM283.68 520.76v.41h-6.64c.1-.17.19-.34.29-.51 2.12.03 4.23.07 6.35.1Z"/><path d="M303.34 521.18v-.41l6.56-.12c.02.18.05.35.07.53h-6.64ZM309.98 521.18c-.02-.18-.05-.35-.07-.53.55-.36 1.16-.11 1.74-.16v.69h-1.66ZM277.34 520.66c-.1.17-.19.34-.29.51h-1.38v-.69c.57 0 1.15-.14 1.68.18Z"/><path d="M593.11 243.38c0 4.8 0 9.59.01 14.39-.12 2.21-.25 4.42-.37 6.64-.07.17-.18.33-.19.5-.27 4.13-.94 8.2-1.71 12.26-.61 3.2-1.3 6.38-1.96 9.56-1.36 4.45-2.72 8.91-4.09 13.36-1.49 3.78-2.97 7.56-4.46 11.34-.09.16-.2.31-.27.48-2.79 6.13-5.79 12.15-9.26 17.93-2.15 3.57-4.41 7.08-6.62 10.61-.23.28-.49.55-.69.85a212.24 212.24 0 0 1-14.38 18.38c-3.12 3.58-6.5 6.91-9.65 10.45l-.07.07-.19.19-.07.02-.02.07-.19.19-.07.02-.02.07-.19.19-.07.02-.02.07-.19.19-.07.02-.02.07-.19.19-.07.02-.02.07-.19.19-.08.08-.19.19-.08.08c-.07.06-.13.13-.2.19-.12.1-.24.21-.36.31-1.26.95-2.36 2.06-3.37 3.26l-.81.69-.17.17-.08.07c-.07.07-.15.14-.22.2-.33.25-.68.47-.98.75-7.07 6.49-14.56 12.45-22.32 18.1-4.77 3.47-9.74 6.63-14.62 9.94-.21.13-.43.26-.64.4-.06.05-.13.1-.19.15-.4.24-.8.47-1.2.71h-.12l-.05.12c-.22.13-.44.27-.65.4-.07.05-.13.1-.2.15-.46.11-.84.37-1.18.68-.07.05-.13.1-.2.15-.21.12-.41.23-.62.35-.1.06-.19.13-.29.19-.29.16-.57.32-.86.48h-.11l-.04.1c-.22.13-.44.27-.66.4l-.21.15c-.12.06-.25.12-.37.19l-.11-.01-.04.11c-.22.13-.44.27-.66.4l-.21.15c-.12.06-.24.12-.37.18h-.11l-.05.1c-.47.1-.85.36-1.2.68l-.21.15c-.31.16-.61.31-.92.47h-.1l-.04.09-1.23.72h-.12l-.05.1c-.13.06-.26.12-.39.19h-.1l-.04.09c-.22.12-.43.24-.65.37-.09.06-.17.12-.26.18-.1.05-.21.1-.31.16-.06.04-.12.09-.19.13-.13.06-.26.12-.38.18l-.11-.01-.05.11-.39.18h-.11l-.05.1-.39.18h-.1l-.04.09c-.33.16-.67.29-1 .47a328.254 328.254 0 0 1-44.05 19.6c-23.26 8.38-47.13 14.36-71.55 18.21-11.52 1.82-23.09 3.12-34.71 4.03-9.01.7-18.04.94-27.07 1.08-6.82.11-13.64-.17-20.46-.43-9.72-.37-19.4-1.17-29.06-2.23a390.893 390.893 0 0 1-30.45-4.59 387.093 387.093 0 0 1-44.33-11.21 350.12 350.12 0 0 1-40.59-15.7c-8.34-3.83-16.48-8.06-24.44-12.63-8.36-4.8-16.45-10.02-24.29-15.64-4.72-3.38-9.24-7.02-13.82-10.58-.07-.05-.13-.1-.2-.15-.45-.45-.85-.96-1.45-1.23-.08-.06-.16-.12-.23-.18-.62-.63-1.19-1.33-2.01-1.75l-.18-.15c-.08-.06-.16-.11-.24-.17-.31-.45-.65-.85-1.16-1.07l-.33-.27c-6.15-5.75-12.25-11.55-17.89-17.81-6.02-6.68-11.52-13.75-16.67-21.11-3.9-5.57-7.05-11.59-10.71-17.3-.5-1.17-.96-2.37-1.51-3.52-2.16-4.47-4.27-8.96-6.07-13.59-2.95-7.58-5.37-15.32-7.18-23.25-1.76-8.43-3.06-16.92-3.37-25.55-.05-1.43.06-2.92-.4-4.33-.31-2.71.22-5.4.33-8.1.21-5.19.73-10.37 1.5-15.52 1.74-11.58 4.83-22.78 9.12-33.65 6.44-16.33 15.35-31.23 26.17-45.01 14.32-18.23 31.3-33.63 50.24-46.93 13.38-9.41 27.5-17.55 42.23-24.63 14.26-6.86 28.97-12.65 44.04-17.46 14.58-4.66 29.41-8.41 44.44-11.33 13.75-2.68 27.61-4.62 41.56-5.89 9.41-.86 18.84-1.35 28.28-1.56 4.61-.1 9.22-.18 13.83-.1 11.52.19 23.02.76 34.49 1.84 21.32 2.01 42.35 5.66 63.08 11.05.47.12 1.04.06 1.33.59.11.56-.25.96-.48 1.4-5.33 10.49-10.67 20.98-16.01 31.47-3.06 6.02-6.07 12.08-9.16 18.09-6.75 13.13-13.37 26.32-20.04 39.48-4.38 8.66-8.76 17.32-13.14 25.97-.24.48-.36 1.07-.96 1.29l-.57-.13c-.12-.19-.3-.24-.51-.18-.11-.03-.22-.06-.33-.1-.12-.19-.29-.23-.5-.17l-.55-.13c-.09-.03-.18-.07-.27-.1l-.61-.15c-.12-.19-.3-.24-.51-.18l-.33-.09c-.12-.19-.29-.22-.5-.17-.26-.05-.52-.1-.77-.16-.11-.04-.23-.08-.34-.12-.19-.04-.39-.08-.58-.11-.14-.18-.31-.22-.52-.16l-.56-.13c-.15-.18-.33-.23-.56-.17l-.53-.11c-.1-.03-.19-.06-.29-.1-.28-.06-.56-.12-.84-.17a.484.484 0 0 0-.56-.16c-.19-.03-.39-.07-.58-.1-.14-.18-.32-.22-.52-.16-.27-.05-.54-.09-.82-.14a.523.523 0 0 0-.57-.17c-.18-.04-.35-.07-.53-.11-.1-.03-.19-.07-.29-.1l-1.09-.18c-.1-.03-.19-.07-.29-.1-.36-.06-.73-.12-1.09-.17-.1-.03-.19-.07-.29-.1l-1.1-.17c-.1-.03-.19-.07-.29-.1l-1.37-.18c-.1-.03-.19-.07-.29-.1l-1.37-.18c-.1-.03-.19-.07-.29-.1l-1.37-.18c-.1-.03-.19-.07-.29-.1l-1.64-.18c-.16-.18-.36-.21-.58-.15-.54-.04-1.09-.09-1.63-.13-.16-.18-.36-.21-.58-.15l-1.66-.12c-.24-.23-.53-.24-.84-.17l-1.93-.11c-.25-.23-.53-.24-.84-.16l-2.51-.12c-.33-.26-.71-.23-1.09-.16-1.3-.04-2.59-.08-3.89-.11-.62-.33-1.28-.17-1.92-.16h-8.06c-.92.02-1.85-.2-2.75.16-1.2.04-2.41.07-3.61.11-.47-.04-.94-.13-1.37.17-.74.05-1.49.09-2.23.14-.38-.07-.75-.13-1.09.14-.65.05-1.3.09-1.95.14-.29-.08-.57-.08-.81.15-.47.03-.94.07-1.4.1-.3-.07-.59-.07-.83.17-.56.05-1.11.09-1.67.14a.435.435 0 0 0-.53.14c-.28.03-.57.07-.85.1-.31-.08-.6-.08-.84.16l-1.09.12c-.3-.08-.58-.06-.81.17-.28.03-.57.07-.85.1-.3-.08-.58-.06-.81.18-.38.05-.76.11-1.14.16-.09.03-.18.07-.27.1-.27.04-.55.07-.82.11-.23-.07-.43-.04-.59.15-.37.04-.74.04-1.1.12-15.45 3.17-30.09 8.44-43.57 16.74-4.23 2.61-8.32 5.44-12.03 8.77-.06.05-.12.11-.18.16l-.07.06c-.08.07-.16.14-.23.21-.61.28-1.02.8-1.47 1.26h-.12l-.04.13-.08.07c-.08.07-.15.14-.23.21l-.05.04c-.32.25-.67.48-.96.76-3.32 3.13-6.45 6.44-9.24 10.06-4.4 5.71-8.01 11.87-10.29 18.75-.18.41-.41.82-.55 1.24-2.13 6.51-3.03 13.19-2.79 20.03.07 1.96.02 3.92.58 5.83l.09 1.39c.05.11.09.22.14.32 1.12 6.81 3.49 13.17 6.92 19.15 4.8 8.55 11.18 15.76 18.72 21.97 13.07 10.76 28.06 17.73 44.26 22.25 10.91 3.05 22.04 4.73 33.36 5.33 16.9.89 33.5-.96 49.78-5.48 14.64-4.07 28.32-10.26 40.54-19.41 9.41-7.05 17.3-15.46 23.09-25.75.43-.76.78-1.56 1.17-2.35 1.36-2.26 2.27-4.72 3.13-7.19 3.94-11.27 4.33-22.66 1.17-34.19-.56-2.03-1.51-3.93-1.84-6.02 1.81-.75 3.77-.66 5.66-.9 8.08-1.03 16.18-1.97 24.27-2.94 8.82-1.06 17.64-2.12 26.46-3.19 7.22-.88 14.44-1.78 21.65-2.66 7.17-.87 14.35-1.72 21.53-2.59 7.22-.87 14.44-1.74 21.66-2.62 7.22-.88 14.44-1.76 21.66-2.63l24.4-2.94c3.98-.48 7.95-.97 11.92-1.48.88-.11 1.34.2 1.62 1.07 2.57 7.9 4.47 15.95 5.69 24.17.7 4.74 1.21 9.5 1.42 14.29Z" style="stroke:#070808;stroke-miterlimit:10;stroke-width:3px;fill:#dae698"/><path d="m66.14 380.89.33.27c-.06.84.35 1.18 1.16 1.07.08.06.16.11.24.17.04.07.1.12.18.15.81.42 1.38 1.12 2.01 1.75.08.06.16.12.23.18.6.27 1 .78 1.45 1.23.05.08.11.13.2.15 4.58 3.56 9.1 7.2 13.82 10.58 7.84 5.61 15.93 10.83 24.29 15.64 7.96 4.57 16.1 8.8 24.44 12.63 13.21 6.07 26.73 11.3 40.59 15.7 14.56 4.62 29.34 8.34 44.33 11.21 10.09 1.93 20.24 3.46 30.45 4.59 9.66 1.07 19.34 1.87 29.06 2.23 6.82.26 13.64.54 20.46.43 9.03-.14 18.06-.38 27.07-1.08 11.62-.91 23.19-2.21 34.71-4.03 24.42-3.85 48.29-9.82 71.55-18.21 15.15-5.46 29.85-11.98 44.05-19.6.32-.17.66-.31 1-.47.05-.02.1-.05.15-.09l.39-.18c.06-.02.12-.05.17-.1l.39-.18c.06-.02.12-.06.17-.1.13-.06.26-.12.38-.18.07-.03.14-.07.19-.13.1-.05.21-.1.31-.16.09-.06.17-.12.26-.18.22-.12.43-.24.65-.37.05-.02.1-.05.15-.09.13-.06.26-.12.39-.19.06-.02.12-.06.17-.1l1.23-.72c.05-.02.1-.05.14-.09.31-.16.61-.31.92-.47.09-.03.16-.08.21-.15.35-.32.73-.58 1.2-.68.06-.02.12-.06.16-.1.12-.06.24-.12.37-.18.09-.03.15-.07.21-.15.22-.13.44-.27.66-.4.05-.02.1-.06.15-.1.12-.06.25-.12.37-.19.09-.03.16-.08.21-.15.22-.13.44-.27.66-.4.05-.02.1-.06.15-.1.29-.16.57-.32.86-.48.1-.06.19-.13.29-.19.21-.12.41-.23.62-.35.08-.03.15-.08.2-.15.34-.32.72-.57 1.18-.68.08-.03.15-.08.2-.15.22-.13.44-.27.65-.4.07-.03.12-.07.17-.12.4-.24.8-.47 1.2-.71a.4.4 0 0 0 .19-.15c.21-.13.43-.26.64-.4.6 0 1.16-.11 1.74-.33 1.64-.63 3.04-1.95 4.99-1.73.33.04.73-.32.9.23.12.4-.02.77-.41.92-1.76.64-.61.79.16 1.05.29.1.65.26.49.69-.12.33-.45.28-.71.26-.22-.02-.45-.09-.66-.16-.34-.11-.66-.09-.85.24-.22.4.07.59.38.73.81.36.79.98.61 1.71-.15.59-.33 1.16.22 1.77.5.54.31 1.12-.56.93-.79-.18-1-.05-.59.69.13.24.37.48.06.71-.95.72-.23.89.35 1.14.98.43 1.39.86.49 1.93-.57.69-.42 1.77.13 2.58.63.93.52 1.34-.6 1.57-.44.09-1.05.27-.86.65.48.93.33 1.82.22 2.76-.04.34.2.59.55.71.31.1.84-.02.65.6-.14.47-.19 1.03-.87 1.09-.32.03-.64.07-.94.17-.28.1-.67.09-.76.5-.1.47.19.61.56.79.72.36.39.67-.11.93-.31.17-.77.29-.66.76.12.49.67.41 1.02.6.39.21.99-.42 1.21.24.2.62-.43.85-.78 1.16-.36.31-.62.59-.27 1.02.24.3.64-.67.85.03.14.48-.6.37-.68.74-.06.26-.05.55-.03.82.14 1.36 0 1.47-1.35 1.03-.18.98-.19 1.8 1.16 1.74.44-.02.72.18.64.66-.07.45-.39.41-.74.32-1.07-.3-1.07.34-.67.94.59.89.85 1.72.27 2.69-.09.14-.15.4-.08.52.74 1.18.03 2.52.43 3.72-.44.83-.91 1.65-1.32 2.5-.11.22.06.53.33.42 1.75-.73.68.35.63.9-.14 1.5-1.5 3.08.41 4.48.63.46-.07.86-.52 1.07-.8.38-1.38.91-1.45 1.84-.02.22 0 .47.24.59.2.1.36.02.48-.13.17-.2.19-.8.62-.29.34.4.48.93.06 1.38-.29.31-.69.43-1.1.52-.98.22-1.21.65-.35 1.36.73.6 1.24 1.34 1.44 2.27-.18.33-.47.49-.83.55-.24-.35-.59-.41-.9-.19-.34.24-.2.52.1.73-.48.51-1.02.91-1.7 1.1-.54-.45-.49 0-.53.34-3.63 2.47-7.39 4.72-11.2 6.93-3 1.74-5.99 3.51-9.03 5.19-7.01 3.87-14.19 7.39-21.51 10.62-.12.05-.23.15-.35.23-.16-.05-.29-.02-.37.14-.52.24-1.05.47-1.57.71-.16-.08-.28-.04-.37.12-.71.32-1.42.64-2.12.96-.16-.05-.29-.02-.37.15-.98.42-1.97.84-2.95 1.26-.16-.07-.28-.04-.37.12-.98.42-1.97.84-2.95 1.26-.16-.07-.28-.04-.37.12-.34.14-.68.29-1.02.43-.16-.07-.28-.04-.37.12-1.08.42-2.15.84-3.23 1.26-.16-.08-.28-.04-.37.12-.34.14-.68.29-1.02.43-.16-.07-.28-.04-.37.12-.62.24-1.23.47-1.85.71-.16-.07-.28-.04-.37.12-.15.06-.29.13-.44.19-.21 0-.44-.06-.58.17-.55.21-1.11.41-1.66.62-.16-.07-.28-.04-.37.12l-2.68.98c-.16-.07-.28-.04-.37.12-.15.05-.31.1-.46.15-.16-.07-.28-.04-.37.12-.15.06-.29.13-.44.19-.52 0-.98.17-1.41.45-1.74.59-3.49 1.18-5.23 1.77-1.29.23-2.5.7-3.71 1.19-.15.05-.31.1-.46.15-.16-.08-.28-.03-.37.12-.52.16-1.03.31-1.55.47-.21 0-.44-.06-.58.17l-3.04.9c-.16-.08-.28-.03-.37.12-.52.16-1.03.31-1.55.47-.21 0-.44-.06-.58.17-.45.13-.91.26-1.36.38-.21 0-.44-.06-.58.17-.45.13-.91.25-1.36.38-.44 0-.86.07-1.22.36l-.74.15c-.16-.08-.28-.03-.37.12-.24.06-.48.13-.72.19-.21 0-.44-.06-.58.17-.18.04-.35.07-.53.11-.44 0-.86.07-1.22.36l-.74.15c-.16-.07-.28-.04-.37.12-.24.06-.48.13-.72.19-.21 0-.44-.06-.58.17-.18.04-.35.07-.53.11-.21 0-.44-.06-.58.17-.18.04-.35.07-.53.11-.21 0-.44-.06-.58.17l-2.77.62c-.16-.07-.28-.04-.37.12-.62.14-1.23.29-1.85.43-.68.01-1.33.16-1.94.49-.18.02-.37.04-.55.07-.16-.07-.28-.04-.37.12l-.74.15c-.31-.04-.6-.04-.83.21-.18.04-.35.07-.53.11-.21 0-.44-.06-.58.17-.18.02-.37.04-.55.07-.16-.07-.28-.04-.37.12-.79.17-1.58.33-2.38.5-.21-.04-.43-.09-.58.14-.18.02-.37.04-.55.07-.31-.04-.6-.04-.83.21-.65.11-1.29.23-1.94.34-.16-.07-.28-.04-.37.12-.88.17-1.77.33-2.65.5-.21-.04-.43-.09-.58.14-.18.02-.37.04-.55.07-.31-.04-.6-.04-.83.21-.18.02-.37.04-.55.07-.3-.05-.59-.03-.84.18-.27.05-.53.11-.8.16-.21-.04-.42-.09-.58.12-.36.05-.72.11-1.08.16-.21-.04-.42-.09-.58.12-.36.05-.72.11-1.08.16-.21-.04-.43-.09-.58.14l-1.08.13c-.21-.04-.43-.09-.58.14-.18.02-.37.04-.55.07-.3-.05-.59-.03-.84.19-.36.05-.72.11-1.08.16-.21-.04-.42-.09-.58.12-.45.05-.9.11-1.35.16-.21-.04-.42-.09-.58.12-.36.05-.72.11-1.08.16-.21-.04-.42-.09-.58.12-.45.05-.9.11-1.35.16-.21-.04-.42-.09-.58.12l-.82.09c-.38 0-.77-.07-1.11.19-.45.05-.9.11-1.35.16-.21-.04-.42-.09-.58.12-.45.05-.9.11-1.35.16-.21-.04-.42-.09-.58.12-.45.05-.9.11-1.35.16-.3-.02-.6-.14-.86.12-.45.05-.9.1-1.35.16-.3-.02-.6-.14-.86.12-.54.05-1.09.1-1.63.16-.21-.04-.42-.09-.58.12-.54.05-1.09.11-1.63.16-.3-.02-.6-.14-.86.12-.54.05-1.09.11-1.63.16-.3-.02-.6-.14-.86.12-.64.05-1.27.1-1.91.16-.3-.02-.6-.14-.86.12l-1.91.16c-.3-.02-.6-.14-.86.12-.82.05-1.64.11-2.46.16-.3-.02-.6-.14-.86.12-.82.05-1.64.11-2.46.16-.38-.01-.78-.17-1.14.12-.91.05-1.82.1-2.74.16-.38-.01-.78-.17-1.14.12l-3.29.16c-.38-.01-.78-.17-1.14.12l-4.42.13c-.58.05-1.19-.2-1.74.16l-6.56.12c-6.56.09-13.11.14-19.67 0-2.12-.03-4.23-.07-6.35-.1-.53-.31-1.11-.17-1.68-.18-1.57-.04-3.13-.09-4.7-.13-.35-.29-.75-.13-1.14-.12-1.19-.05-2.38-.11-3.57-.16-.26-.26-.56-.14-.86-.12-1-.05-2.01-.11-3.01-.16-.16-.21-.37-.16-.58-.12-.91-.05-1.82-.11-2.74-.16-.26-.26-.57-.14-.86-.12l-2.46-.16c-.16-.21-.37-.16-.58-.12-.73-.05-1.46-.11-2.18-.16-.16-.21-.37-.16-.58-.12-.73-.05-1.46-.11-2.18-.16-.16-.21-.37-.16-.58-.12-.64-.05-1.27-.11-1.91-.16-.16-.21-.37-.16-.58-.12-.64-.05-1.27-.11-1.91-.16-.16-.2-.37-.16-.58-.12-1.28-.15-2.56-.29-3.84-.44-.16-.2-.37-.16-.58-.12-1.83-.24-3.67-.48-5.5-.71-.16-.21-.37-.16-.58-.12-5.5-.9-10.99-1.81-16.49-2.71-.08-.16-.21-.2-.37-.12-18.55-3.54-36.77-8.34-54.61-14.55-7.46-2.6-14.81-5.5-22.08-8.61-8.92-3.82-17.67-7.99-26.21-12.6-9.85-5.32-19.39-11.16-28.54-17.61-7.08-4.99-13.94-10.27-20.47-15.99-2.42-2.12-4.83-4.24-7.16-6.47.63-.25.45-.67.25-1.13-.59-1.41-1.25-2.79-1.35-4.37-.05-.72-.1-1.32.63-1.8 1.08-.71.98-2.05-.15-2.79-.24-.16-.52-.29-.43-.61.08-.3.31-.45.64-.35.89.26.92-.37.9-.94-.07-1.55.83-3.08.04-4.64-.12-.23.05-.63.14-.93.1-.34.13-.68-.18-.88-.83-.53-.24-.87.12-1.27.41-.47 1.21-.85.96-1.56-.34-.94-1.46-1.59-1.04-2.83-1.48-.72-.81-1.88-.6-2.95.34-1.77 1.28-3.52-.11-5.32-.44-.57-.23-1.43.38-2.01.37-.35.75-.68 1.08-1.05 1.11-1.23 1.06-1.62-.29-2.63-.23-.17-.57-.4-.39-.63.72-.93.21-1.87 0-2.85.68.11.88.51 1.04.95.12.32.38.35.68.31.22-.03.31-.18.35-.37.1-.5-1.06-1.99-1.59-2.03-.27-.02-.65.41-.79-.12-.12-.45.29-.61.6-.82.52-.36 1.07-.89.52-1.45-.8-.8-.69-1.11.36-1.28.35-.06.61-.25.61-.63 0-.37-.29-.44-.57-.44-.76.01-.72-.5-.76-1.03-.06-.77.24-1.24.87-1.7 1.29-.95 1.15-2.85-.18-3.67-.55-.34-.58-1.45-.04-1.86.22-.16.5-.25.69-.43.23-.2.63-.43.45-.77-.21-.39-.55-.15-.82.05-.46.34-1.03.1-.83-.29.47-.9.29-1.9.72-2.77.19-.39.45-.59.87-.35 1.07.61 2.41.91 3.03 2.04.51.93 1.14 1.23 2.09 1.1Zm-6.07 30.48c-.11-.33-.17-.76-.61-.81-.53-.06-.72.33-.72.79 0 .3-.09.76.41.67.35-.06.88-.03.92-.64Zm-1.13 22.71c-.03-.22-.19-.3-.38-.29a.32.32 0 0 0-.33.35c.01.26.18.41.46.34.21-.05.27-.21.25-.41Zm440.82-17.7c-.02-.22-.18-.31-.37-.3-.21 0-.34.14-.34.34 0 .26.16.41.44.36.21-.04.28-.2.27-.4ZM60.31 404.79c-.03.08-.07.15-.1.23.08.03.17.11.23.09.05-.02.07-.14.1-.22-.08-.03-.15-.07-.23-.1Zm437.23 39.28c-.03.08-.11.17-.09.23.02.06.14.07.22.11.03-.08.11-.17.09-.23-.02-.06-.14-.07-.22-.11ZM293.36 168.45h8.06c.61.4 1.23.76 1.92.16 1.3.04 2.59.08 3.89.11.35.17.64.68 1.09.16l2.51.12c.24.25.54.19.84.16.64.04 1.29.07 1.93.11.24.25.54.2.84.17l1.66.12c.16.18.36.19.58.15.54.04 1.09.09 1.63.13.16.18.37.19.58.15l1.64.18c.1.03.19.07.29.1l1.37.18c.1.03.19.07.29.1l1.37.18c.1.03.19.07.29.1l1.37.18c.09.03.19.07.29.1.37.06.73.12 1.1.17.1.03.19.07.29.1.36.06.73.12 1.09.17.1.03.19.07.29.1l1.09.18c.1.03.19.07.29.1.18.04.35.07.53.11.15.19.36.2.57.17.27.05.54.09.82.14.17.05.35.1.52.16.19.03.39.07.58.1.15.18.35.2.56.16.28.06.56.12.84.17.1.03.19.06.29.1.18.04.35.07.53.11.15.19.34.2.56.17.19.04.37.09.56.13.17.05.35.11.52.16.19.04.39.08.58.11.11.04.23.08.34.13.26.05.52.1.77.16.17.06.33.11.5.17l.33.09.51.18.61.15c.09.03.18.07.27.11.18.04.37.09.55.13.17.06.33.11.5.17.11.03.22.06.33.1l.51.18c.19.04.38.09.57.13.59 1.49.06 2.99.03 4.48-.06 3.9-.35 7.79-.54 11.69-.19 3.94-.38 7.88-.55 11.83-.18 3.99-.33 7.98-.56 11.96-.3 5.18-.4 10.37-.58 15.56-.02.51-.12 1.01-.16 1.5-.09 1.34-.46 2.72.2 4.02-.15.82-.5 1.11-1.41.83-10.24-3.19-20.7-5.2-31.39-6.13-9.33-.82-18.65-.78-27.98 0-9.37.78-18.58 2.44-27.62 4.97-9.38 2.62-18.43 6.12-27.04 10.78a114.02 114.02 0 0 0-20.46 14.18c-.29-.04-.69-.25-.5-.48.83-.99.22-2.03.17-3.03-.04-.81-.55-1.72-.17-2.43.71-1.33-.1-2.95.94-4.17.09-.11.09-.38.01-.53-.94-1.87-.25-3.87-.37-5.79-.1-1.62.19-3.3.26-4.97.1-2.36.51-4.72.58-7.1.02-.83-.27-1.51-.39-2.25-.17-.99.72-1.79.53-2.66-.7-3.16.9-6.19.23-9.41-.59-2.85.43-5.78.4-8.75-.04-3-.24-6.29 1-9.28.13-.32.06-.73.08-1.1l.05-.04c.08-.07.15-.14.23-.21l.08-.07c.06-.03.11-.07.15-.13.45-.47.85-.99 1.47-1.26.08-.07.16-.14.23-.21l.07-.06c.08-.03.14-.09.18-.16 3.71-3.33 7.79-6.16 12.03-8.77 13.47-8.29 28.12-13.57 43.57-16.74.36-.07.73-.08 1.1-.12.22.04.43.04.59-.15.27-.04.55-.07.82-.11.09-.03.18-.07.27-.1.38-.05.76-.11 1.14-.16.29.02.58.07.81-.18.28-.03.57-.07.85-.1.29.02.58.07.81-.17l1.09-.12c.3.03.6.09.84-.16.28-.03.57-.07.85-.1.18-.05.35-.09.53-.14.56-.05 1.11-.09 1.67-.14.29.03.59.08.83-.17.47-.03.94-.07 1.4-.1.37.49.57.09.81-.15.65-.05 1.3-.09 1.95-.14.44.54.77.22 1.09-.14.74-.05 1.49-.09 2.23-.14.54.6.93.06 1.37-.17 1.2-.04 2.41-.07 3.61-.11.95.55 1.87.42 2.75-.16Z"/><path d="M341.02 236.45c-.67-1.31-.3-2.68-.2-4.02.03-.49.14-.99.16-1.5.18-5.19.28-10.38.58-15.56.23-3.99.39-7.97.56-11.96.17-3.94.37-7.88.55-11.83.18-3.9.47-7.78.54-11.69.02-1.5.56-2.99-.03-4.48.6-.22.72-.81.96-1.29 4.39-8.65 8.76-17.31 13.14-25.97 6.67-13.17 13.29-26.36 20.04-39.48 3.09-6.01 6.09-12.06 9.16-18.09 5.33-10.49 10.67-20.98 16.01-31.47.22-.44.59-.84.48-1.4.58 1.04.22 2.16.18 3.22-.32 7.68-.7 15.37-1.08 23.05-.51 10.49-1.29 20.97-1.45 31.46-.07 4.58-2.24 8.07-4.09 11.81-4.02 8.14-8.19 16.2-12.3 24.29-6.77 13.35-13.54 26.71-20.31 40.06-.23.45-.43.92-.64 1.38-.26.13-.33.35-.33.62-1.88 3.69-3.78 7.37-5.65 11.06-5.01 9.89-10.02 19.79-15.03 29.68-.37.73-.84 1.41-1.26 2.11ZM66.14 380.89c-.96.12-1.58-.17-2.09-1.1-.62-1.13-1.96-1.44-3.03-2.04-.42-.24-.68-.04-.87.35-.42.87-.25 1.87-.72 2.77-.2.39.37.63.83.29.26-.2.61-.44.82-.05.18.33-.22.56-.45.77-.2.18-.48.26-.69.43-.54.41-.51 1.52.04 1.86 1.33.82 1.47 2.72.18 3.67-.63.47-.93.93-.87 1.7.04.53 0 1.04.76 1.03.29 0 .58.07.57.44 0 .39-.26.58-.61.63-1.05.17-1.16.47-.36 1.28.56.56 0 1.1-.52 1.45-.31.21-.72.37-.6.82.14.54.52.1.79.12.52.04 1.68 1.53 1.59 2.03-.04.19-.13.34-.35.37-.29.04-.56.01-.68-.31-.16-.44-.36-.85-1.04-.95.22.98.72 1.92 0 2.85-.18.23.16.46.39.63 1.35 1 1.39 1.39.29 2.63-.34.37-.72.71-1.08 1.05-.62.58-.83 1.44-.38 2.01 1.39 1.8.45 3.54.11 5.32-.21 1.06-.88 2.23.6 2.95-.42 1.24.7 1.89 1.04 2.83.25.71-.55 1.09-.96 1.56-.35.4-.95.74-.12 1.27.31.19.28.54.18.88-.09.3-.26.7-.14.93.79 1.57-.11 3.1-.04 4.64.03.57 0 1.19-.9.94-.33-.09-.56.06-.64.35-.09.33.19.46.43.61 1.13.73 1.23 2.08.15 2.79-.73.47-.67 1.08-.63 1.8.1 1.57.76 2.96 1.35 4.37.19.46.38.88-.25 1.13-4.45-4.14-8.72-8.46-12.77-12.99-4.63-5.17-9.03-10.54-13.1-16.15-5.36-7.39-10.21-15.09-14.39-23.22-.19-.36-.32-.75-.48-1.13.78-2.04.5-4.22.78-6.33.26-1.98.37-3.98-.21-5.95-.04-.12-.03-.3.04-.41.76-1.33.45-2.78.51-4.19.08-1.78-.14-3.57.24-5.36.23-1.06.45-2.23.24-3.26-.3-1.42-.09-2.73.2-4.07.07-.32.24-.66.08-.94-.97-1.62-.1-3.32-.05-4.92.07-1.87-.19-3.85.56-5.72.14-.35.25-1.15-.01-1.7-1.04-2.19-.14-4.47.11-6.56.26-2.24-.29-4.45.2-6.63.28-1.25-.38-2.67.7-3.77 3.66 5.71 6.82 11.73 10.71 17.3 5.15 7.36 10.65 14.43 16.67 21.11 5.64 6.26 11.74 12.05 17.89 17.81ZM207.89 199.12c-.02.37.05.77-.08 1.1-1.24 2.99-1.04 6.27-1 9.28.03 2.97-.98 5.9-.4 8.75.66 3.22-.94 6.25-.23 9.41.19.87-.7 1.67-.53 2.66.13.75.42 1.42.39 2.25-.07 2.39-.49 4.74-.58 7.1-.07 1.67-.36 3.35-.26 4.97.12 1.92-.57 3.92.37 5.79.07.14.08.42-.01.53-1.04 1.22-.22 2.84-.94 4.17-.38.71.14 1.62.17 2.43.04 1 .66 2.04-.17 3.03-.19.23.2.44.5.48-4.2 3.9-8.07 8.09-11.45 12.72-.68.92-1.38 1.83-1.87 2.87-3.42-5.98-5.8-12.34-6.92-19.15-.05-.11-.09-.22-.14-.32l-.09-1.39c.61-.99.43-2.11.58-3.18.6-4.42 1.31-8.83 1.87-13.25.38-2.98.59-5.98.84-8.98.05-.6.24-1.32-.53-1.7 2.28-6.88 5.89-13.04 10.29-18.75 2.79-3.62 5.91-6.93 9.24-10.06.3-.28.64-.5.96-.76Z"/><path d="M20.86 324.67c-1.08 1.1-.42 2.52-.7 3.77-.49 2.19.06 4.39-.2 6.63-.25 2.1-1.15 4.37-.11 6.56.26.55.15 1.35.01 1.7-.75 1.87-.49 3.85-.56 5.72-.06 1.61-.93 3.3.05 4.92.17.28 0 .62-.08.94-.29 1.34-.5 2.64-.2 4.07.22 1.03 0 2.2-.24 3.26-.39 1.78-.17 3.57-.24 5.36-.06 1.41.25 2.86-.51 4.19-.06.11-.07.28-.04.41.57 1.97.46 3.97.21 5.95-.27 2.11 0 4.28-.78 6.33-2.26-3.91-4.03-8.06-5.75-12.22-3.43-8.31-6.19-16.84-8.13-25.63-.12-.54-.18-1.08-.26-1.63-.04-.12-.09-.24-.13-.36-.05-.26-.09-.52-.14-.77.04-.23.03-.44-.16-.61-.03-.28-.06-.56-.1-.84.23-.04.58-.13.48-.36-.4-.97.1-1.9.08-2.84-.04-3.08-.11-6.17.29-9.23.15-1.11-.15-2.18 0-3.27.31-2.27.66-4.57.48-6.84-.2-2.46.07-4.91.17-7.33.09-2.27.24-4.58.33-6.85.23-5.41.78-10.82.63-16.25-.03-1.22.41-2.42.07-3.68-.13-.47 0-1.22.73-1.45 1.81 7.93 4.23 15.67 7.18 23.25 1.8 4.63 3.91 9.12 6.07 13.59.55 1.15 1.01 2.35 1.51 3.52Z"/><path d="M6.09 284.31c-.74.23-.86.98-.73 1.45.35 1.26-.1 2.45-.07 3.68.15 5.43-.4 10.83-.63 16.25-.1 2.27-.24 4.59-.33 6.85-.1 2.42-.37 4.87-.17 7.33.18 2.28-.16 4.57-.48 6.84-.15 1.09.14 2.16 0 3.27-.41 3.06-.34 6.15-.29 9.23.01.95-.48 1.87-.08 2.84.09.23-.25.33-.48.36-.89-2.96-1.19-6.04-1.6-9.08-1.15-8.42-1.4-16.89-1.09-25.36.37-9.98.86-19.96 1.28-29.95.24-5.8.43-11.6.65-17.39.08-2.07.19-4.14.28-6.21.46 1.41.35 2.9.4 4.33.31 8.63 1.61 17.12 3.37 25.55ZM405.17 225.8c.33 2.09 1.28 3.99 1.84 6.02 3.16 11.53 2.77 22.92-1.17 34.19-.86 2.47-1.77 4.93-3.13 7.19l.69-16.11c.24-5.32.47-10.65.73-15.97.23-4.77.51-9.54.77-14.31.02-.35-.09-.75.27-1.02ZM269.83 520.24c.38-.01.78-.17 1.14.12-.42.34-.81.42-1.14-.12ZM258.2 519.41c.3-.02.6-.14.86.12-.34.36-.63.36-.86-.12ZM265.4 519.96c.3-.02.6-.14.86.12-.34.36-.63.36-.86-.12ZM252.39 518.85c.21-.04.42-.09.58.12-.27.35-.45.23-.58-.12ZM249.63 518.58c.21-.04.42-.09.58.12-.27.35-.45.23-.58-.12ZM247.14 518.3c.21-.04.42-.09.58.12-.27.35-.45.23-.58-.12ZM244.65 518.02c.21-.04.42-.09.58.12-.27.35-.45.23-.58-.12ZM240.22 517.47c.21-.04.42-.09.58.12-.27.35-.45.23-.58-.12ZM255.16 519.13c.21-.04.42-.09.58.12-.27.35-.45.23-.58-.12ZM234.13 516.64c.21-.04.42-.09.58.12-.27.35-.45.23-.58-.12ZM261.8 519.68c.21-.04.42-.09.58.12-.27.35-.45.23-.58-.12ZM2.91 343.26c.19.17.2.38.16.61-.18-.17-.22-.38-.16-.61ZM217.27 513.8c.16-.07.28-.04.37.12-.16.06-.28.03-.37-.12ZM3.21 344.64c.04.12.09.24.13.36-.04-.12-.09-.24-.13-.36ZM498.72 462.82c-.2-.94-.71-1.67-1.44-2.27-.86-.71-.63-1.14.35-1.36.42-.09.82-.21 1.1-.52.42-.46.28-.98-.06-1.38-.43-.51-.45.09-.62.29-.13.15-.29.22-.48.13-.25-.13-.26-.37-.24-.59.07-.93.66-1.46 1.45-1.84.45-.21 1.15-.61.52-1.07-1.91-1.39-.55-2.98-.41-4.48.05-.55 1.12-1.63-.63-.9-.27.11-.44-.2-.33-.42.41-.85.88-1.67 1.57-2.23.28 0 .21-.16.01-.2-.07-.02-.26-.23-.25.07 0 .21-.04.47.23.55.07.02.19-.11 0-.41-.65-1.48.06-2.82-.68-3.99-.07-.11 0-.37.08-.52.58-.97.32-1.8-.27-2.69-.4-.6-.4-1.24.67-.94.35.1.66.14.74-.32.08-.48-.2-.68-.64-.66-1.36.06-1.34-.76-1.16-1.74 1.35.45 1.48.33 1.35-1.03-.03-.27-.03-.56.03-.82.08-.37.82-.25.68-.74-.21-.7-.6.27-.85-.03-.35-.43-.08-.72.27-1.02.36-.31.99-.54.78-1.16-.22-.66-.82-.03-1.21-.24-.35-.19-.9-.11-1.02-.6-.11-.47.34-.59.66-.76.49-.27.83-.58.11-.93-.37-.18-.66-.32-.56-.79.09-.41.47-.4.76-.5.3-.1.62-.14.94-.17.68-.07.73-.62.87-1.09.19-.62-.34-.51-.65-.6-.35-.11-.59-.37-.55-.71.11-.94.26-1.83-.22-2.76-.19-.38.42-.56.86-.65 1.12-.24 1.23-.64.6-1.57-.55-.82-.71-1.9-.13-2.58.9-1.07.49-1.5-.49-1.93-.58-.25-1.3-.42-.35-1.14.31-.24.08-.47-.06-.71-.41-.73-.2-.86.59-.69.87.19 1.06-.39.56-.93-.55-.6-.37-1.17-.22-1.77.18-.73.2-1.35-.61-1.71-.31-.14-.6-.33-.38-.73.19-.33.5-.35.85-.24.22.07.44.15.66.16.27.02.59.07.71-.26.16-.43-.2-.59-.49-.69-.76-.26-1.91-.41-.16-1.05.4-.14.54-.52.41-.92-.17-.54-.58-.19-.9-.23-1.95-.22-3.35 1.1-4.99 1.73-.58.22-1.14.34-1.74.33 4.87-3.31 9.85-6.47 14.62-9.94 7.76-5.64 15.25-11.61 22.32-18.1.3-.28.65-.5.98-.75.07-.07.15-.14.22-.2l.08-.07c.07-.04.13-.1.17-.17l.81-.69c1.26-.2 3.25-2.13 3.37-3.26.12-.1.24-.21.36-.31.07-.06.13-.13.2-.19l.08-.08.19-.19.08-.08c.08-.05.14-.11.19-.19l.02-.07.07-.02c.08-.05.14-.11.19-.19l.02-.07.07-.02c.08-.05.14-.11.19-.19l.02-.07.07-.02c.08-.05.14-.11.19-.19l.02-.07.07-.02c.08-.05.14-.11.19-.19l.02-.07.07-.02c.08-.05.14-.11.19-.19l.07-.07c.14 0 .39 0 .4.02.1 1.22.95 2.2 1.09 3.39.04.35-.18.72-.16 1.07.1 1.36.53 2.76-.63 3.93-.27.28-.27.68-.05 1.03.42.66.52 1.2.32 2.09-.19.83-.16 1.61-.83 2.26-.37.36-.33.92.08 1.24 1.08.82.73 1.48-.17 2 1.27 1.08.75 2.53.99 3.76.08.39.11.97-.59 1.05-.46.05-.45.34-.34.7.14.45.16.91-.16 1.32-.43.54-.16.89.27 1.27.53.46.06 2.31-.61 2.5-.36.1-.92-.18-1.01.43-.07.47.36.69.7.94 1.28.97 1.38 1.54.44 2.83-.52.71-.83 1.84-.43 2.25.83.84 1.02 1.29-.06 1.94-.11.07-.15.33-.15.51.01.73-.12 1.37-.8 1.79-.25.15-.37.44-.22.72.12.23.38.26.61.2 1.4-.35.8.32.68 1.06-.18 1.09-.68 2.07-.84 3.15-.34 2.38 1.27 4.83-.25 7.18-.06.09.01.27.06.4.3.85.13 1.71.11 2.58-.02.77-.64 1.79-.25 2.16 1.17 1.13.82 2.45.91 3.74-4.49 5.08-9.56 9.55-14.64 14.01-7.79 6.83-16.06 13.04-24.6 18.9-.18.13-.41.19-.62.29Zm41.19-72.43c0-.37-.1-.66-.46-.59-.49.09-1.01.23-1.12.84-.05.28.16.49.4.42.45-.13 1.04-.08 1.18-.67Z"/><path d="M538.57 429.62c-.09-1.29.26-2.61-.91-3.74-.38-.37.24-1.39.25-2.16.02-.87.19-1.73-.11-2.58-.04-.13-.11-.31-.06-.4 1.52-2.35-.09-4.8.25-7.18.16-1.08.66-2.06.84-3.15.12-.74.73-1.41-.68-1.06-.23.06-.49.03-.61-.2-.15-.29-.03-.57.22-.72.68-.42.81-1.06.8-1.79 0-.17.04-.44.15-.51 1.07-.65.88-1.1.06-1.94-.4-.41-.08-1.54.43-2.25.94-1.29.84-1.86-.44-2.83-.33-.25-.77-.47-.7-.94.09-.6.65-.32 1.01-.43.67-.19 1.13-2.04.61-2.5-.43-.38-.7-.73-.27-1.27.32-.4.29-.87.16-1.32-.11-.37-.13-.65.34-.7.69-.08.66-.65.59-1.05-.24-1.23.28-2.68-.99-3.76.9-.53 1.25-1.18.17-2a.805.805 0 0 1-.08-1.24c.67-.66.65-1.43.83-2.26.2-.89.1-1.43-.32-2.09-.22-.35-.22-.75.05-1.03 1.16-1.17.73-2.57.63-3.93-.03-.35.2-.73.16-1.07-.14-1.19-.99-2.17-1.09-3.39 0-.02-.26-.02-.4-.02 3.16-3.54 6.53-6.87 9.65-10.45 5.12-5.87 9.93-11.98 14.38-18.38.21-.3.46-.57.69-.85.75-.18 1.12-.16 1.29.87.16.95-.45 1.53-.5 2.24-.17 2.8-.11 5.62-.15 8.43 0 .41.29.77.14 1.21-.63 1.87-1.06 3.76-.69 5.75.55 3-.76 6-.02 9 .04.15-.08.35-.14.52-.67 1.75-.91 3.62-.6 5.41.47 2.69-.06 5.28-.29 7.91-.11 1.32-.67 2.67-.26 3.96.49 1.56.34 3.2.04 4.59-.65 2.95.07 5.94-.63 8.84-.06.23.12.43.34.55-1.91 3.38-4.25 6.46-6.57 9.54-5.25 7-10.89 13.69-17.05 19.93-.16.16-.35.28-.53.42Z"/><path d="M562.72 399.73c-.22-.12-.39-.32-.34-.55.7-2.9-.02-5.89.63-8.84.3-1.38.45-3.03-.04-4.59-.41-1.29.15-2.64.26-3.96.22-2.63.75-5.22.29-7.91-.31-1.79-.07-3.66.6-5.41.06-.17.18-.37.14-.52-.74-3.01.57-6 .02-9-.36-1.99.06-3.88.69-5.75.15-.44-.15-.8-.14-1.21.04-2.81-.02-5.63.15-8.43.04-.71.65-1.29.5-2.24-.17-1.03-.54-1.05-1.29-.87 2.21-3.53 4.47-7.04 6.62-10.61 3.47-5.78 6.47-11.8 9.26-17.93.08-.17.18-.32.27-.48.77.13.55.75.54 1.21-.06 2.47-.48 4.93-.49 7.39-.02 4.91-.59 9.8-.67 14.71-.04 2.1-.12 4.21-.23 6.32-.24 4.52-.63 9.04-.77 13.57-.08 2.71-.25 5.41-.41 8.11-.11 1.81.06 3.66-.41 5.47-.16.63-.36 1.51.58 1.92-.06.18-.13.37-.19.55-.05.1-.09.2-.14.3-1.56 4.19-3.5 8.21-5.56 12.17-2.77 5.31-5.72 10.52-9.05 15.51-.25.38-.55.73-.82 1.09Z"/><path d="M578.48 370.11c-.94-.41-.74-1.3-.58-1.92.47-1.81.31-3.66.41-5.47.16-2.69.32-5.4.41-8.11.14-4.53.53-9.04.77-13.57.11-2.1.2-4.22.23-6.32.08-4.91.65-9.79.67-14.71 0-2.45.43-4.92.49-7.39.01-.46.23-1.07-.54-1.21 1.49-3.78 2.97-7.56 4.46-11.34.5.06.5.43.53.82.07.79-.21 1.55-.26 2.32-.31 4.85-.65 9.69-.83 14.54-.13 3.48-.35 6.96-.55 10.43-.29 5.08-.4 10.18-.58 15.27-.02.46-.01.92-.04 1.38-.28 4.74-.99 9.46-.48 14.23-1.12 3.77-2.41 7.48-4.11 11.04Z"/><path d="M582.59 359.07c-.51-4.77.2-9.49.48-14.23.03-.46.02-.92.04-1.38.19-5.09.29-10.18.58-15.27.2-3.48.42-6.95.55-10.43.18-4.85.52-9.7.83-14.54.05-.77.33-1.52.26-2.32-.03-.38-.02-.75-.53-.82 1.36-4.45 2.72-8.91 4.09-13.36.22.41.42.86.3 1.32-.61 2.3-.3 4.66-.46 6.98-.37 5.44-.51 10.89-.86 16.33-.24 3.7-.42 7.41-.55 11.12-.18 4.95-.54 9.89-.68 14.84-.06 2.24-.17 4.47.05 6.7l-.01.06c-.41.38-.22.87-.26 1.32l-.01.07c-.36.28-.24.68-.26 1.04l-.01.07c-.36.28-.24.68-.26 1.04l-.01.06c-.36.29-.24.69-.25 1.06-.76 3.52-1.74 6.97-3.01 10.34Z"/><path d="M586.69 344.02c-.22-2.23-.11-4.46-.05-6.7.14-4.95.49-9.89.68-14.84.14-3.71.32-7.42.55-11.12.35-5.44.49-10.89.86-16.33.16-2.32-.15-4.69.46-6.98.12-.46-.08-.91-.3-1.32.66-3.19 1.35-6.37 1.96-9.56.78-4.05 1.44-8.13 1.71-12.26.01-.17.12-.34.19-.5-.21 4.78-.41 9.57-.64 14.35-.22 4.51-.47 9.01-.71 13.52-.45 8.65-.97 17.29-1.33 25.94-.33 7.97-1.25 15.86-2.83 23.68-.14.71-.37 1.41-.55 2.12ZM415.05 502.58c1.21-.49 2.42-.97 3.71-1.19-1.11.8-2.35 1.19-3.71 1.19ZM497.09 463.91c-.29-.21-.44-.49-.1-.73.31-.22.66-.16.9.19-.17.32-.45.49-.8.54ZM386.37 510.42c.61-.33 1.25-.48 1.94-.49-.55.53-1.21.66-1.94.49ZM424 499.62c.43-.28.89-.46 1.41-.45-.35.52-.8.74-1.41.45ZM316.07 520.35c.35-.29.75-.13 1.14-.12-.33.54-.72.46-1.14.12ZM320.5 520.08c.35-.29.75-.13 1.14-.12-.33.54-.72.46-1.14.12ZM324.37 519.8c.35-.29.75-.13 1.14-.12-.33.53-.72.46-1.14.12ZM352.32 516.76c.34-.25.73-.18 1.11-.19-.32.38-.65.65-1.11.19ZM331.29 519.25c.26-.26.57-.14.86-.12-.23.47-.52.48-.86.12ZM327.97 519.52c.26-.26.57-.14.86-.12-.23.47-.52.47-.86.12ZM397.9 507.56c.36-.29.78-.36 1.22-.36-.27.6-.77.4-1.22.36ZM402.05 506.46c.36-.29.78-.36 1.22-.36-.27.6-.77.4-1.22.36ZM346.24 517.59c.26-.26.57-.14.86-.12-.23.47-.52.47-.86.12ZM334.06 518.97c.26-.26.57-.14.86-.12-.23.48-.52.48-.86.12ZM344.02 517.86c.26-.26.57-.14.86-.12-.23.48-.52.48-.86.12ZM339.32 518.42c.26-.26.57-.14.86-.12-.23.48-.52.48-.86.12ZM336.83 518.69c.26-.26.57-.14.86-.12-.23.47-.52.48-.86.12ZM361.46 515.37c.24-.22.53-.23.84-.19-.23.27-.45.6-.84.19ZM369.2 513.99c.24-.22.53-.24.84-.18-.23.27-.45.6-.84.18ZM370.59 513.74c.23-.25.53-.25.83-.21-.23.27-.44.59-.83.21ZM377.51 512.35c.23-.25.53-.25.83-.21-.23.27-.44.59-.83.21ZM383.88 510.97c.23-.25.53-.25.83-.21-.23.27-.44.59-.83.21ZM586.41 345.4c.05-.45-.14-.94.26-1.32.04.47.02.92-.26 1.32ZM585.6 348.74c0-.37-.11-.77.25-1.06.04.38.04.75-.25 1.06ZM585.86 347.62c.02-.37-.1-.76.26-1.04.05.38 0 .74-.26 1.04ZM341.81 518.14c.16-.21.37-.16.58-.12-.13.35-.31.47-.58.12ZM586.14 346.51c.02-.36-.1-.76.26-1.04.05.38 0 .74-.26 1.04ZM412.1 503.5c.14-.23.37-.17.58-.17-.1.36-.27.5-.58.17ZM406.57 505.16c.14-.23.37-.17.58-.17-.1.36-.27.5-.58.17ZM348.45 517.31c.16-.21.37-.16.58-.12-.13.35-.31.47-.58.12ZM350.39 517.03c.16-.21.37-.16.58-.12-.13.35-.31.47-.58.12ZM404.63 505.71c.14-.23.37-.17.58-.17-.1.36-.27.5-.58.17ZM399.65 507.1c.14-.23.37-.17.58-.17-.1.36-.27.5-.58.17ZM395.5 508.2c.14-.23.37-.17.58-.17-.1.36-.27.49-.58.17ZM354.26 516.48c.16-.2.37-.16.58-.12-.13.35-.31.46-.58.12ZM356.2 516.2c.16-.2.37-.16.58-.12-.13.35-.31.46-.58.12ZM357.86 515.93c.16-.2.37-.16.58-.12-.13.35-.31.47-.58.12ZM359.8 515.65c.16-.21.37-.16.58-.12-.13.35-.31.47-.58.12ZM494.86 465.35c.04-.33 0-.79.53-.34-.18.11-.35.23-.53.34ZM362.84 515.12c.15-.23.37-.18.58-.14-.12.34-.29.47-.58.14ZM364.5 514.84c.15-.23.37-.18.58-.14-.12.34-.29.47-.58.14ZM366.16 514.54c.16-.2.37-.16.58-.12-.13.35-.31.47-.58.12ZM394.39 508.48c.14-.23.37-.17.58-.17-.1.36-.27.5-.58.17ZM431.75 496.86c.14-.23.37-.17.58-.17-.1.36-.27.49-.58.17ZM367.82 514.27c.16-.21.37-.16.58-.12-.13.35-.31.46-.58.12ZM393.28 508.76c.14-.23.37-.17.58-.17-.1.36-.27.5-.58.17ZM371.98 513.46c.15-.23.36-.18.58-.14-.12.34-.29.47-.58.14ZM382.77 511.25c.14-.23.37-.17.58-.17-.1.36-.27.5-.58.17ZM378.89 512.08c.15-.23.37-.18.58-.14-.12.34-.3.47-.58.14ZM429.72 497.6c.08-.16.2-.2.37-.12-.09.15-.21.19-.37.12ZM426.68 498.71c.08-.16.21-.2.37-.12-.09.15-.21.19-.37.12ZM425.85 498.99c.08-.16.21-.2.37-.12-.09.15-.21.19-.37.12ZM432.77 496.49c.08-.16.21-.2.37-.12-.09.15-.21.19-.37.12ZM434.98 495.67c.08-.16.2-.2.37-.12-.09.15-.21.19-.37.12ZM414.23 502.86c.08-.16.2-.2.37-.12-.08.15-.21.19-.37.12ZM436.37 495.11c.08-.16.2-.2.37-.12-.08.15-.21.19-.37.12ZM408.69 504.52c.08-.16.2-.2.37-.12-.08.15-.21.19-.37.12ZM439.96 493.73c.08-.16.21-.2.37-.12-.09.15-.21.19-.37.12ZM441.35 493.17c.08-.16.21-.2.37-.12-.09.15-.21.19-.37.12ZM444.67 491.79c.08-.16.21-.2.37-.12-.09.15-.21.19-.37.12ZM400.95 506.73c.08-.16.2-.2.37-.12-.08.15-.21.19-.37.12ZM447.99 490.41c.08-.16.21-.19.37-.15-.08.16-.2.2-.37.15ZM450.48 489.3c.08-.16.2-.2.37-.12-.09.15-.21.19-.37.12ZM396.79 507.84c.08-.16.2-.2.37-.12-.08.15-.21.19-.37.12ZM452.41 488.47c.08-.16.21-.19.37-.14-.08.16-.2.2-.37.14ZM390.15 509.5c.08-.16.21-.2.37-.12-.09.15-.21.19-.37.12ZM385.45 510.61c.08-.16.2-.2.37-.12-.09.15-.21.19-.37.12ZM381.85 511.44c.08-.16.21-.2.37-.12-.09.15-.21.19-.37.12ZM375.21 512.82c.08-.16.21-.2.37-.12-.09.15-.21.19-.37.12ZM578.15 370.96c.05-.1.09-.2.14-.3-.05.1-.09.2-.14.3ZM187.39 228.69c.77.38.58 1.1.53 1.7-.25 3-.46 6-.84 8.98-.56 4.42-1.27 8.83-1.87 13.25-.15 1.07.03 2.19-.58 3.18-.56-1.91-.51-3.87-.58-5.83-.25-6.84.66-13.52 2.79-20.03.14-.43.36-.83.55-1.24ZM536.91 372.62c-.12 1.13-2.11 3.06-3.37 3.26 1.01-1.2 2.11-2.31 3.37-3.26ZM293.36 168.45c-.89.59-1.8.72-2.75.16.9-.36 1.83-.14 2.75-.16ZM303.35 168.62c-.7.6-1.31.23-1.92-.16.65 0 1.3-.16 1.92.16ZM67.63 382.23c-.82.11-1.22-.23-1.16-1.07.51.22.86.63 1.16 1.07ZM287 168.73c-.44.23-.83.77-1.37.17.43-.29.9-.21 1.37-.17ZM283.4 169.04c-.32.36-.65.67-1.09.14.33-.27.71-.21 1.09-.14ZM308.33 168.89c-.45.52-.75 0-1.09-.16.38-.07.76-.1 1.09.16ZM280.35 169.31c-.24.24-.44.64-.81.15.24-.23.52-.23.81-.15ZM274.26 170.12c-.24.25-.55.19-.84.16.25-.24.54-.24.84-.16ZM278.14 169.56c-.24.25-.53.2-.83.17.24-.23.53-.24.83-.17ZM314.44 169.45c-.3.03-.6.08-.84-.17.3-.07.59-.06.84.17ZM311.67 169.17c-.3.03-.59.08-.84-.16.3-.08.59-.06.84.16ZM270.67 170.67c-.23.25-.52.2-.81.18.23-.24.51-.25.81-.18ZM272.33 170.39c-.23.25-.52.19-.81.17.23-.24.51-.25.81-.17ZM341.78 175c-.17-.06-.33-.11-.5-.17.21-.06.38-.02.5.17ZM339.85 174.45l-.51-.18c.21-.06.38 0 .51.18ZM339.01 174.17c-.17-.06-.33-.11-.5-.17.2-.06.38-.03.5.17ZM342.62 175.28l-.51-.18c.21-.06.38-.01.51.18ZM336.82 173.61c-.17-.05-.35-.11-.52-.16.21-.06.39-.02.52.16ZM318.89 169.99c-.22.04-.42.03-.58-.15.22-.06.42-.03.58.15ZM335.74 173.32c-.21.03-.41.01-.56-.17.22-.06.41-.01.56.17ZM333.53 172.77c-.21.03-.41.02-.56-.16.22-.06.41-.02.56.16ZM332.4 172.5c-.17-.05-.35-.1-.52-.16.21-.06.39-.02.52.16ZM275.64 169.87c-.18.05-.35.09-.53.14.14-.17.32-.22.53-.14ZM316.67 169.71c-.22.04-.42.03-.58-.15.22-.06.42-.03.58.15ZM331.06 172.21c-.22.04-.42.02-.57-.17.22-.06.42-.01.57.17ZM267.62 171.22c-.16.19-.37.19-.59.15.16-.19.36-.22.59-.15ZM322.48 170.55c-.1-.03-.19-.07-.29-.1.1.03.19.07.29.1ZM477.9 415.38s-.09.07-.15.09l.04-.11h.1ZM478.46 415.1s-.1.08-.17.1l.05-.11h.11ZM479.01 414.82s-.1.08-.17.1l.05-.11h.11ZM479.58 414.51c-.05.06-.11.1-.19.13.06-.04.12-.09.19-.13ZM480.15 414.18c-.09.06-.17.12-.26.18.09-.06.17-.12.26-.18ZM480.95 413.72s-.09.07-.15.09l.04-.11h.1ZM481.51 413.43s-.1.08-.17.1l.05-.11h.12ZM482.88 412.62s-.09.07-.14.09l.04-.11h.1ZM484.02 412c-.05.07-.12.12-.21.15l.21-.15ZM485.38 411.22s-.1.08-.16.1l.05-.11h.11ZM486.76 410.4s-.09.07-.15.1l.04-.11h.11ZM487.34 410.07c-.05.07-.12.12-.21.15l.21-.15ZM488.14 409.57s-.09.07-.15.1l.04-.11h.11ZM489.29 408.9c-.1.06-.19.13-.29.19.1-.06.19-.13.29-.19ZM490.1 408.41c-.05.07-.12.12-.2.15.07-.05.14-.1.2-.15ZM491.49 407.58c-.05.07-.12.12-.2.15.07-.05.13-.1.2-.15ZM492.31 407.05c-.05.05-.1.1-.17.12l.05-.11h.12ZM493.7 406.2a.4.4 0 0 1-.19.15c.06-.05.13-.1.19-.15ZM71.95 385.87a.382.382 0 0 1-.2-.15c.07.05.13.1.2.15ZM70.29 384.48c-.08-.06-.16-.12-.23-.18.08.06.16.12.23.18ZM68.06 382.55a.335.335 0 0 1-.18-.15l.18.15ZM532.48 376.81c-.07.07-.15.14-.22.2.07-.07.15-.14.22-.2ZM532.72 376.57c-.04.07-.1.13-.17.17l.17-.17ZM537.46 372.12c-.07.06-.13.13-.2.19.07-.06.13-.13.2-.19ZM537.74 371.84l-.19.19.19-.19ZM538.01 371.56c-.05.08-.12.14-.19.19l.19-.19ZM538.29 371.29c-.05.08-.11.14-.19.19l.19-.19ZM538.57 371.01c-.05.08-.11.14-.19.19l.19-.19ZM538.84 370.73c-.05.08-.11.14-.19.19l.19-.19ZM539.12 370.46c-.05.08-.11.14-.19.19l.19-.19ZM539.4 370.18c-.05.08-.11.14-.19.19l.19-.19ZM184.74 257.19c.05.11.09.22.14.32-.05-.11-.09-.22-.14-.32ZM208.16 198.88c-.08.07-.15.14-.23.21.08-.07.15-.14.23-.21ZM208.4 198.68c-.04.06-.09.1-.15.13l.04-.12h.12ZM210.1 197.21c-.08.07-.16.14-.23.21.08-.07.16-.14.23-.21ZM210.34 196.99c-.04.07-.1.13-.18.16.06-.05.12-.11.18-.16ZM320.82 170.27c-.1-.03-.19-.07-.29-.1.1.03.19.07.29.1ZM340.73 174.7c-.09-.04-.18-.07-.27-.11.09.04.18.07.27.11ZM337.74 173.85c-.11-.04-.23-.08-.34-.13.11.04.23.08.34.13ZM334.66 173.04c-.1-.03-.19-.07-.29-.1.1.03.19.07.29.1ZM329.95 171.93c-.1-.03-.19-.07-.29-.1.1.03.19.07.29.1ZM328.57 171.65c-.1-.03-.19-.07-.29-.1.1.03.19.07.29.1ZM327.19 171.38c-.1-.03-.2-.07-.29-.1.1.03.2.07.29.1ZM325.8 171.1c-.1-.03-.19-.07-.29-.1.1.03.19.07.29.1ZM268.72 171.01c-.09.03-.18.07-.27.1.09-.03.18-.07.27-.1ZM324.14 170.83c-.1-.03-.19-.07-.29-.1.1.03.19.07.29.1ZM485.95 410.9c-.05.07-.12.12-.21.15l.21-.15ZM60.06 411.37c-.04.61-.57.58-.92.64-.5.09-.41-.37-.41-.67 0-.46.19-.85.72-.79.44.05.49.48.61.81ZM58.93 434.08c.02.2-.04.36-.25.41-.28.06-.44-.08-.46-.34 0-.19.11-.35.33-.35.19 0 .35.07.38.29ZM499.75 416.39c0 .2-.05.36-.27.4-.28.05-.44-.1-.44-.36 0-.2.13-.34.34-.34.19 0 .35.08.37.3ZM60.3 404.79c.08.03.15.07.23.1-.03.08-.05.2-.1.22-.06.02-.15-.05-.23-.09.03-.08.07-.15.1-.23ZM497.53 444.08c.08.03.2.05.22.11.02.05-.06.15-.09.23-.08-.03-.2-.05-.22-.11-.02-.06.05-.15.09-.23ZM539.92 390.39c-.14.59-.73.54-1.18.67-.24.07-.45-.14-.4-.42.11-.61.63-.75 1.12-.84.35-.07.46.22.46.59ZM499.76 446.45c-.06.04-.18.17-.25.14-.27-.08-.23-.34-.23-.55 0-.3.19-.08.25-.07.2.05.26.21.24.47Z"/><path d="M308.77 121.62v-.28c.65-.66.9-1.55 1.26-2.35 3.24-7.23 6.43-14.49 9.62-21.74 4.96-11.26 9.9-22.52 14.85-33.78 4.27-9.7 8.57-19.38 12.84-29.08 4.61-10.46 9.22-20.91 13.77-31.39.57-1.32 1.35-1.66 2.67-1.44 2.45.4 4.92.71 7.38 1.04 10.64 1.41 21.17 3.39 31.61 5.87 24.52 5.81 47.98 14.41 69.97 26.81 17.65 9.95 33.71 21.98 47.82 36.58 10.92 11.3 20.35 23.69 27.74 37.59 1.36 2.56 2.68 5.14 3.56 7.91-.52.22-1.03.44-1.55.66-.36.07-.73.12-1.08.2-12.52 3.09-25.05 6.18-37.57 9.28-30.81 7.63-61.62 15.26-92.43 22.9-15.34 3.8-30.67 7.62-46 11.43-.8-.43-.98-1.29-1.34-2.02-1.66-3.32-3.47-6.54-6.09-9.23-.17-.27-.31-.57-.52-.8-2.43-2.7-5.01-5.27-7.87-7.52-2.27-1.78-4.52-3.62-7.12-4.94-1.38-1.08-2.93-1.89-4.46-2.72-11.65-6.33-24.09-10.44-37.07-12.98Z" class="cls-2"/><path d="m361.61 202.44-4.15-2.51c-.05-.56-.45-.57-.87-.55-.78-.25-1.53-.58-2.18-1.11-.83-1.09-1.92-1.69-3.32-1.67-.92-.22-1.7-.72-2.49-1.19-.22-.5-.5-.87-1.11-.47-5.33-2.13-10.69-4.19-16.22-5.72-3.63-1.01-7.26-2.03-11-2.59-.96-.14-1.03-.72-1.14-1.41-.93-5.81-1.86-11.63-2.8-17.44-2.33-14.4-4.66-28.79-7.02-43.18-.09-.53.11-1.22-.54-1.59v-1.38c12.98 2.54 25.42 6.65 37.07 12.98 1.53.83 3.08 1.64 4.46 2.72-.03.37-.06.78.3 1.01 1.44.92 1.57 2.44 1.91 3.9.68 2.93-.05 6.14 1.77 8.84.06.09 0 .26 0 .4-.06 2.22.44 4.38.73 6.57.08.63.74 1.21.46 1.83-.56 1.23.64 2.37.08 3.57-.11.23.13.53.37.69.47.33.46.75.28 1.22-.15.4-.24.84-.01 1.21 1.42 2.25.15 5.24 2.02 7.37.08.09.01.39-.08.52-.58.8-.31 1.64 0 2.36.39.89.39 1.77.43 2.69.15 3.04.73 6.02 1.17 9.02.16 1.12 1.08 2 .98 3.05-.17 1.77.22 3.47.45 5.17.11.85-.38 1.84.23 2.5.99 1.07 1.03 2.07.2 3.19Z"/><path d="M552.09 118.31c.06.36.13.73.19 1.09-.36.24-.28.42.07.57.07.46.14.91.2 1.37-.36.25-.27.43.08.57.06.36.13.73.19 1.09-.47.34-.13.58.11.82.06.37.11.74.17 1.11-.36.24-.28.43.08.57.07.36.13.73.2 1.09-.47.34-.13.58.11.82.06.37.11.74.17 1.11-.48.37-.12.59.14.83.04.28.09.56.13.83-.38.32-.4.6.07.85.22.33.22.71.21 1.09-.36.25-.28.43.08.57.21.34.16.73.17 1.1-.36.33-.36.61.11.84.07.36.13.73.2 1.09-.36.25-.28.43.08.57.22.34.17.73.17 1.1-.36.33-.36.62.11.84.07.36.13.73.2 1.09-.36.25-.28.43.08.57.22.34.16.73.17 1.1-.48.45-.2.78.17 1.1.04.28.09.55.13.83-.36.25-.28.43.08.57.21.34.16.73.17 1.1-.36.33-.36.61.11.84.07.36.13.73.2 1.09-.36.24-.28.42.07.57.07.46.14.91.2 1.37-.48.37-.12.59.14.83.05.28.09.55.14.83-.47.34-.13.58.11.82.05.37.11.74.16 1.11-.48.37-.12.59.14.83.04.28.09.55.13.83-.47.34-.13.58.11.82.06.37.11.74.17 1.11-.48.37-.12.59.14.83.04.28.09.55.13.83-.36.24-.29.42.07.57l.21 1.37c-.48.37-.12.59.14.83.05.28.09.55.14.83-.36.24-.29.42.07.57l.21 1.37c-.36.25-.28.43.08.57.07.36.13.73.2 1.09-.36.24-.28.42.07.57.07.46.14.91.2 1.37-.48.37-.12.59.14.83.04.28.09.55.13.83-.36.24-.28.42.07.57.07.46.14.91.2 1.37-.36.25-.28.43.08.57.07.36.13.73.2 1.09-.47.34-.13.58.11.82.06.37.11.74.17 1.11-.48.37-.12.59.14.83.04.28.09.55.13.83-.36.24-.28.42.07.57.07.46.14.91.2 1.37-.48.37-.12.59.14.83.04.28.09.55.13.83-.47.34-.13.58.11.82.06.37.11.74.17 1.11-.36.24-.28.43.08.57.41.82-.04.98-.75 1.15-5.49 1.33-10.98 2.71-16.46 4.07-16.08 3.99-32.16 7.99-48.25 11.98l-85.59 21.21c-8.73 2.16-17.46 4.34-26.2 6.5-.68.17-1.51.61-1.65-.65.22-.15.21-.35.17-.6-.9-5.61-1.78-11.23-2.68-16.84-1.07-6.65-2.18-13.3-3.25-19.95-1.34-8.33-2.64-16.66-4-24.98-.09-.54 0-.98.11-1.47 15.33-3.81 30.67-7.63 46-11.43 30.81-7.64 61.62-15.27 92.43-22.9 12.52-3.1 25.05-6.19 37.57-9.28.36-.09.72-.14 1.08-.2.6 0 1.21.01 1.76.3Z" class="cls-2"/><path d="M361.61 202.44c.83-1.12.79-2.12-.2-3.19-.61-.66-.12-1.65-.23-2.5-.23-1.7-.62-3.4-.45-5.17.1-1.05-.81-1.93-.98-3.05-.44-3-1.02-5.99-1.17-9.02-.05-.92-.05-1.8-.43-2.69-.32-.73-.59-1.57 0-2.36.09-.13.16-.43.08-.52-1.86-2.13-.6-5.12-2.02-7.37-.23-.36-.14-.81.01-1.21.18-.47.19-.9-.28-1.22-.24-.17-.48-.46-.37-.69.55-1.21-.64-2.34-.08-3.57.28-.62-.38-1.2-.46-1.83-.29-2.18-.8-4.34-.73-6.57 0-.13.06-.31 0-.4-1.82-2.7-1.09-5.91-1.77-8.84-.34-1.47-.47-2.98-1.91-3.9-.36-.23-.33-.63-.3-1.01 2.6 1.32 4.84 3.16 7.12 4.94 2.87 2.25 5.44 4.81 7.87 7.52.21.23.35.53.52.8.23 2.27.45 4.55.84 6.8.45 2.66 1.01 5.29 1.37 7.97.6 4.49 1.27 8.98 2.09 13.42.76 4.1 1.24 8.23 1.98 12.32.77 4.27 1.37 8.57 2.16 12.84.46 2.47.81 4.97 1.17 7.46.11.79-.05 1.51-1.1 1.53-2.92-2.79-5.83-5.59-9.14-7.93-1.19-.84-2.38-1.71-3.56-2.56Z"/><path d="M374.31 212.93c1.04-.02 1.21-.74 1.1-1.53-.35-2.49-.71-4.98-1.17-7.46-.79-4.27-1.4-8.57-2.16-12.84-.74-4.1-1.22-8.23-1.98-12.32-.82-4.45-1.49-8.93-2.09-13.42-.36-2.68-.91-5.31-1.37-7.97-.39-2.26-.61-4.53-.84-6.8 2.62 2.69 4.43 5.91 6.09 9.23.36.72.54 1.58 1.34 2.02-.11.48-.2.93-.11 1.47 1.36 8.32 2.66 16.65 4 24.98 1.07 6.65 2.17 13.3 3.25 19.95.9 5.61 1.78 11.23 2.68 16.84.04.25.05.45-.17.6-1.04-1.83-2.04-3.68-3.11-5.49-1.54-2.62-3.59-4.86-5.45-7.24ZM552.09 118.31c-.56-.28-1.16-.3-1.76-.3.52-.22 1.03-.44 1.55-.66.22.29.34.6.21.96ZM351.1 196.6c1.39-.02 2.48.58 3.32 1.67-1.15-.47-2.27-1-3.32-1.67ZM347.51 194.94c.61-.4.88-.02 1.11.47-.44.02-.8-.18-1.11-.47ZM555.74 142.08c-.37-.32-.65-.65-.17-1.1.29.33.17.72.17 1.1ZM556.24 145.42c-.47-.22-.47-.51-.11-.84.27.25.17.55.11.84ZM555.13 138.23c-.47-.22-.47-.51-.11-.84.27.25.17.55.11.84ZM554.01 131.04c-.47-.24-.46-.53-.07-.85.22.27.13.56.07.85ZM554.58 134.63c-.47-.22-.47-.51-.11-.84.27.25.17.55.11.84ZM556.85 149.28c-.26-.24-.62-.46-.14-.83.21.25.18.54.14.83ZM553.81 129.36c-.26-.24-.62-.46-.14-.83.21.25.18.54.14.83ZM553.5 127.42c-.24-.25-.59-.48-.11-.82.21.25.18.53.11.82ZM557.1 150.93c-.24-.25-.59-.48-.11-.82.21.25.18.54.11.82ZM552.95 123.82c-.24-.25-.59-.48-.11-.82.21.25.18.54.11.82ZM557.4 152.87c-.26-.24-.62-.46-.14-.83.21.25.18.54.14.83ZM557.65 154.53c-.24-.25-.59-.48-.11-.82.21.25.18.53.11.82ZM557.96 156.47c-.26-.24-.62-.46-.14-.83.21.25.18.54.14.83ZM558.51 160.07c-.26-.24-.62-.46-.14-.83.21.25.18.54.14.83ZM559.62 167.26c-.26-.24-.62-.46-.14-.83.21.25.18.54.14.83ZM560.42 172.51c-.24-.25-.59-.48-.11-.82.21.25.18.54.11.82ZM560.72 174.45c-.26-.24-.62-.46-.14-.83.21.25.18.54.14.83ZM561.28 178.05c-.26-.24-.62-.46-.14-.83.21.25.18.54.14.83ZM561.52 179.71c-.24-.25-.58-.48-.11-.82.21.25.18.53.11.82ZM356.59 199.38c.42-.02.82-.01.87.55-.35-.09-.7-.18-.87-.55ZM554.3 132.7c-.36-.14-.44-.32-.08-.57.19.17.15.37.08.57ZM555.41 139.89c-.36-.14-.44-.33-.08-.57.19.17.15.37.08.57ZM555.96 143.49c-.36-.14-.44-.32-.08-.57.19.17.15.37.08.57ZM553.19 125.5c-.36-.14-.44-.33-.08-.57.19.17.15.37.08.57ZM556.5 147.08c-.36-.15-.43-.33-.07-.57.18.17.16.37.07.57ZM554.85 136.29c-.36-.14-.44-.33-.08-.57.19.17.15.37.08.57ZM558.16 157.87c-.36-.15-.43-.33-.07-.57.19.17.16.37.07.57ZM558.72 161.47c-.36-.15-.43-.33-.07-.57.19.17.16.37.07.57ZM559 163.41c-.36-.14-.44-.33-.08-.57.19.17.15.37.08.57ZM559.27 165.07c-.36-.15-.43-.33-.07-.57.19.17.16.37.07.57ZM559.82 168.66c-.36-.15-.43-.33-.07-.57.18.17.17.37.07.57ZM560.11 170.6c-.36-.14-.44-.32-.08-.57.19.17.15.37.08.57ZM560.93 175.86c-.36-.15-.43-.33-.07-.57.18.17.17.37.07.57ZM561.77 181.39c-.36-.14-.44-.33-.08-.57.19.17.15.37.08.57ZM552.64 121.91c-.36-.14-.44-.32-.08-.57.19.17.16.36.08.57ZM552.35 119.97c-.36-.15-.43-.33-.07-.57.18.17.17.37.07.57Z"/></svg>