<svg xmlns="http://www.w3.org/2000/svg" id="Layer_1" data-name="Layer 1" viewBox="0 0 268.75 44.13"><defs><style>.cls-1{fill:#1e1e21}</style></defs><path d="M28.5 36.34H13l-2.48 7.32H0L15 2.24h11.67l15 41.42H31Zm-2.6-7.78-5.13-15.17-5.08 15.17ZM61 34.22l7.14-23.48h10.74L67.2 43.66H54.75L43.07 10.74h10.8ZM89.41 42.07a15.18 15.18 0 0 1-6.07-5.9 17.6 17.6 0 0 1-2.22-9 17.46 17.46 0 0 1 2.25-8.94 15.21 15.21 0 0 1 6.13-5.93 19.55 19.55 0 0 1 17.47 0 15.21 15.21 0 0 1 6.13 5.93 17.46 17.46 0 0 1 2.25 8.94 17.28 17.28 0 0 1-2.28 8.94 15.42 15.42 0 0 1-6.19 5.93 18.62 18.62 0 0 1-8.76 2.06 18.27 18.27 0 0 1-8.71-2.03ZM103 33.28a8.45 8.45 0 0 0 2-6.08 8.59 8.59 0 0 0-2-6.08 6.71 6.71 0 0 0-9.76 0c-1.3 1.4-2 3.43-2 6.11a8.78 8.78 0 0 0 1.92 6.08 6.22 6.22 0 0 0 4.81 2.12 6.58 6.58 0 0 0 5.03-2.15ZM120.8 18.23a14.61 14.61 0 0 1 5.84-5.9 17.58 17.58 0 0 1 8.59-2.06 16.32 16.32 0 0 1 10.35 3.24 15.29 15.29 0 0 1 5.42 9.15h-10.7a5.16 5.16 0 0 0-5.25-3.78 5.29 5.29 0 0 0-4.42 2.12 9.92 9.92 0 0 0-1.63 6.2 9.89 9.89 0 0 0 1.66 6.16 5.27 5.27 0 0 0 4.42 2.16 5.16 5.16 0 0 0 5.25-3.78H151a15.43 15.43 0 0 1-5.49 9.09 16.15 16.15 0 0 1-10.32 3.3 17.58 17.58 0 0 1-8.59-2.06 14.68 14.68 0 0 1-5.84-5.9 18.51 18.51 0 0 1-2.09-9 18.51 18.51 0 0 1 2.13-8.94ZM156.32 18.23a14.33 14.33 0 0 1 5.22-5.9 13.68 13.68 0 0 1 7.38-2.06 12.69 12.69 0 0 1 6.1 1.41 10.48 10.48 0 0 1 4 3.72v-4.66h10.09v32.92h-10.05V39a11 11 0 0 1-4.1 3.72 12.69 12.69 0 0 1-6.1 1.41 13.43 13.43 0 0 1-7.32-2.13 14.5 14.5 0 0 1-5.22-6 19.87 19.87 0 0 1-1.92-8.94 19.68 19.68 0 0 1 1.92-8.83Zm20.65 3a7.1 7.1 0 0 0-10.21 0 8.17 8.17 0 0 0-2.09 5.93 8.39 8.39 0 0 0 2.09 6 7 7 0 0 0 10.21 0 8.24 8.24 0 0 0 2.09-6 8.24 8.24 0 0 0-2.06-5.92ZM196.38 18.23a14.33 14.33 0 0 1 5.22-5.9 13.71 13.71 0 0 1 7.4-2.06 13 13 0 0 1 5.93 1.35 10.94 10.94 0 0 1 4.22 3.66V0h10.09v43.66h-10.11v-4.72a10.42 10.42 0 0 1-4 3.78 12.69 12.69 0 0 1-6.1 1.41A13.56 13.56 0 0 1 201.6 42a14.5 14.5 0 0 1-5.22-6 19.87 19.87 0 0 1-1.92-8.94 19.68 19.68 0 0 1 1.92-8.83Zm20.65 3a7.1 7.1 0 0 0-10.21 0 8.17 8.17 0 0 0-2.09 5.93 8.39 8.39 0 0 0 2.09 6 7 7 0 0 0 10.21 0 8.24 8.24 0 0 0 2.1-6 8.24 8.24 0 0 0-2.13-5.92ZM242.81 42.07a15.18 15.18 0 0 1-6.07-5.9 17.6 17.6 0 0 1-2.21-9 17.46 17.46 0 0 1 2.24-8.94 15.21 15.21 0 0 1 6.13-5.93 19.55 19.55 0 0 1 17.47 0 15.21 15.21 0 0 1 6.13 5.93 17.46 17.46 0 0 1 2.25 8.94 17.28 17.28 0 0 1-2.28 8.94 15.42 15.42 0 0 1-6.19 5.93 18.62 18.62 0 0 1-8.76 2.06 18.27 18.27 0 0 1-8.71-2.03Zm13.63-8.79a8.45 8.45 0 0 0 2-6.08 8.59 8.59 0 0 0-2-6.08 6.71 6.71 0 0 0-9.76 0c-1.3 1.4-2 3.43-2 6.11a8.78 8.78 0 0 0 1.92 6.08 6.22 6.22 0 0 0 4.81 2.12 6.58 6.58 0 0 0 5.03-2.15Z" class="cls-1"/></svg>